<?xml version="1.0" encoding="UTF-8" standalone="no"?>
<svg width="375px" height="951px" viewBox="0 0 375 951" version="1.1" xmlns="http://www.w3.org/2000/svg" xmlns:xlink="http://www.w3.org/1999/xlink">
    <!-- Generator: Sketch 49 (51002) - http://www.bohemiancoding.com/sketch -->
    <title>2@2x</title>
    <desc>Created with Sketch.</desc>
    <defs>
        <rect id="path-1" x="0" y="0" width="79.8029557" height="160" rx="5.2"></rect>
        <rect id="path-2" x="1.05466461" y="1.15344828" width="77.5862069" height="157.8" rx="4.6"></rect>
        <rect id="path-3" x="4.58866995" y="16" width="71.8226601" height="128" rx="0.8"></rect>
        <path d="M4.78817734,122.8 L76.2118227,122.8 L76.2118227,143.2 C76.2118227,143.531371 75.9431935,143.8 75.6118227,143.8 L5.38817734,143.8 C5.05680649,143.8 4.78817734,143.531371 4.78817734,143.2 L4.78817734,122.8 Z" id="path-4"></path>
        <linearGradient x1="7.86993682%" y1="16.0124156%" x2="91.1945247%" y2="89.0791517%" id="linearGradient-5">
            <stop stop-color="#F9EAEA" offset="0%"></stop>
            <stop stop-color="#F4D9D9" offset="100%"></stop>
        </linearGradient>
        <rect id="path-6" x="0" y="0" width="79.8934754" height="160.16178" rx="5.2"></rect>
        <rect id="path-7" x="1.05586091" y="1.15461455" width="77.6742122" height="157.959555" rx="4.6"></rect>
        <rect id="path-8" x="4.59387483" y="16.016178" width="71.9041278" height="128.129424" rx="0.8"></rect>
        <linearGradient x1="23.5623031%" y1="0%" x2="86.2408446%" y2="60.6758934%" id="linearGradient-9">
            <stop stop-color="#F8F0F0" offset="0%"></stop>
            <stop stop-color="#F5DCDC" offset="100%"></stop>
        </linearGradient>
        <linearGradient x1="6.36613685%" y1="11.687051%" x2="68.1130226%" y2="64.1337217%" id="linearGradient-10">
            <stop stop-color="#F9EAEA" offset="0%"></stop>
            <stop stop-color="#F3D8D8" offset="100%"></stop>
        </linearGradient>
        <rect id="path-11" x="0" y="0" width="79.7736917" height="159.821429" rx="5.2"></rect>
        <rect id="path-12" x="1.05427786" y="1.15216095" width="77.5577558" height="157.623884" rx="4.6"></rect>
        <rect id="path-13" x="4.58698727" y="15.9821429" width="71.7963225" height="127.857143" rx="0.8"></rect>
        <path d="M4.7864215,122.662946 L76.1838755,122.662946 L76.1838755,143.039509 C76.1838755,143.37088 75.9152464,143.639509 75.5838755,143.639509 L5.3864215,143.639509 C5.05505065,143.639509 4.7864215,143.37088 4.7864215,143.039509 L4.7864215,122.662946 Z" id="path-14"></path>
        <linearGradient x1="50%" y1="0.209263393%" x2="50%" y2="88.0410569%" id="linearGradient-15">
            <stop stop-color="#FBF5F5" offset="0%"></stop>
            <stop stop-color="#F4DADA" offset="100%"></stop>
        </linearGradient>
        <rect id="path-16" x="0" y="0" width="79.7736917" height="159.821429" rx="5.2"></rect>
        <rect id="path-17" x="1.05427786" y="1.15216095" width="77.5577558" height="157.623884" rx="4.6"></rect>
        <rect id="path-18" x="4.58698727" y="15.9821429" width="71.7963225" height="127.857143" rx="0.8"></rect>
        <path d="M4.7864215,122.662946 L76.1838755,122.662946 L76.1838755,143.039509 C76.1838755,143.37088 75.9152464,143.639509 75.5838755,143.639509 L5.3864215,143.639509 C5.05505065,143.639509 4.7864215,143.37088 4.7864215,143.039509 L4.7864215,122.662946 Z" id="path-19"></path>
        <rect id="path-20" x="0" y="0" width="79.8029557" height="160" rx="5.2"></rect>
        <rect id="path-21" x="1.05466461" y="1.15344828" width="77.5862069" height="157.8" rx="4.6"></rect>
        <filter x="-116.7%" y="-100.0%" width="333.3%" height="333.3%" filterUnits="objectBoundingBox" id="filter-22">
            <feOffset dx="0" dy="1" in="SourceAlpha" result="shadowOffsetOuter1"></feOffset>
            <feGaussianBlur stdDeviation="1.5" in="shadowOffsetOuter1" result="shadowBlurOuter1"></feGaussianBlur>
            <feColorMatrix values="0 0 0 0 0   0 0 0 0 0   0 0 0 0 0  0 0 0 0.2 0" type="matrix" in="shadowBlurOuter1" result="shadowMatrixOuter1"></feColorMatrix>
            <feOffset dx="0" dy="0" in="SourceAlpha" result="shadowOffsetOuter2"></feOffset>
            <feGaussianBlur stdDeviation="0.5" in="shadowOffsetOuter2" result="shadowBlurOuter2"></feGaussianBlur>
            <feColorMatrix values="0 0 0 0 0   0 0 0 0 0   0 0 0 0 0  0 0 0 0.05 0" type="matrix" in="shadowBlurOuter2" result="shadowMatrixOuter2"></feColorMatrix>
            <feMerge>
                <feMergeNode in="shadowMatrixOuter1"></feMergeNode>
                <feMergeNode in="shadowMatrixOuter2"></feMergeNode>
                <feMergeNode in="SourceGraphic"></feMergeNode>
            </feMerge>
        </filter>
        <ellipse id="path-23" cx="2.56460699" cy="2.5887931" rx="2.56460699" ry="2.5887931"></ellipse>
        <filter x="-29.2%" y="-29.0%" width="158.5%" height="157.9%" filterUnits="objectBoundingBox" id="filter-24">
            <feOffset dx="0" dy="0" in="SourceAlpha" result="shadowOffsetOuter1"></feOffset>
            <feGaussianBlur stdDeviation="0.5" in="shadowOffsetOuter1" result="shadowBlurOuter1"></feGaussianBlur>
            <feColorMatrix values="0 0 0 0 0   0 0 0 0 0   0 0 0 0 0  0 0 0 0.3 0" type="matrix" in="shadowBlurOuter1"></feColorMatrix>
        </filter>
        <rect id="path-25" x="0" y="0" width="79.8029557" height="160" rx="5.2"></rect>
        <rect id="path-26" x="1.05466461" y="1.15344828" width="77.5862069" height="157.8" rx="4.6"></rect>
        <rect id="path-27" x="4.58866995" y="16" width="71.8226601" height="128" rx="0.8"></rect>
        <path d="M0,98.6 L71.8226601,98.6 L71.8226601,119 C71.8226601,119.331371 71.5540309,119.6 71.2226601,119.6 L0.6,119.6 C0.26862915,119.6 1.48387116e-15,119.331371 1.44328993e-15,119 L0,98.6 Z" id="path-28"></path>
        <rect id="path-29" x="0.00573608985" y="0" width="60.4450028" height="107.8"></rect>
        <rect id="path-30" x="0" y="90.6658863" width="60.4507389" height="17.7341137"></rect>
    </defs>
    <g id="v1s重构版本" stroke="none" stroke-width="1" fill="none" fill-rule="evenodd">
        <g id="基础操作" transform="translate(0.000000, -2195.000000)">
            <g id="2" transform="translate(0.000000, 2195.000000)">
                <rect id="Rectangle-13-Copy-5" fill="#FFFFFF" opacity="0.113864272" x="0" y="317" width="375" height="317"></rect>
                <g id="Group-7-Copy" transform="translate(247.000000, 415.000000)">
                    <g id="Group-3">
                        <g id="Group" transform="translate(0.598522, 0.000000)">
                            <g id="Rectangle-2">
                                <use fill="#FFFFFF" fill-rule="evenodd" xlink:href="#path-1"></use>
                                <rect stroke="#231F20" stroke-width="0.5" x="0.25" y="0.25" width="79.3029557" height="159.5" rx="5.2"></rect>
                            </g>
                            <g id="Rectangle-1">
                                <use fill="#FFFFFF" fill-rule="evenodd" xlink:href="#path-2"></use>
                                <rect stroke="#605D5E" stroke-width="0.5" x="1.30466461" y="1.40344828" width="77.0862069" height="157.3" rx="4.6"></rect>
                            </g>
                        </g>
                        <path d="M80.5641406,28.9287798 L80.5641406,52.5399702 C80.6765296,52.4611382 80.75,52.3305943 80.75,52.1828906 L80.75,29.2858594 C80.75,29.1381557 80.6765296,29.0076118 80.5641406,28.9287798 Z M80.5641406,60.2100298 L80.5641406,70.0712202 C80.6765296,69.9923882 80.75,69.8618443 80.75,69.7141406 L80.75,60.5671094 C80.75,60.4194057 80.6765296,60.2888618 80.5641406,60.2100298 Z M0.435859441,54.7100298 C0.323470435,54.7888618 0.25,54.9194057 0.25,55.0671094 L0.25,64.2141406 C0.25,64.3618443 0.323470435,64.4923882 0.435859441,64.5712202 L0.435859441,54.7100298 Z" id="Rectangle-12" stroke="#231F20" stroke-width="0.5"></path>
                        <g id="Rectangle-11">
                            <use fill="#F4F4F4" fill-rule="evenodd" xlink:href="#path-3"></use>
                            <rect stroke="#605D5E" stroke-width="0.5" x="4.83866995" y="16.25" width="71.3226601" height="127.5" rx="0.8"></rect>
                        </g>
                        <g id="Group-2" transform="translate(23.940887, 4.800000)" stroke="#3E3A3B" stroke-width="0.5">
                            <rect id="Rectangle-3" x="8.66349703" y="1.1870844" width="14.5946984" height="1.68670077" rx="0.843350384"></rect>
                            <rect id="Rectangle-4" x="28.1208251" y="1.01214834" width="5.34592368" height="2.12404092" rx="1.06202046"></rect>
                            <ellipse id="Oval-1" cx="1.99507389" cy="2" rx="1.99507389" ry="2"></ellipse>
                        </g>
                    </g>
                    <rect id="Rectangle-14" fill="#D8D8D8" x="9.37684729" y="24.2" width="12.3694581" height="12.4" rx="3.4"></rect>
                    <rect id="Rectangle-14" fill="#D8D8D8" x="25.5369458" y="24.2" width="12.3694581" height="12.4" rx="3.4"></rect>
                    <rect id="Rectangle-14" fill="#D8D8D8" x="42.2955665" y="24.2" width="12.3694581" height="12.4" rx="3.4"></rect>
                    <rect id="Rectangle-14" fill="#D8D8D8" x="58.6551724" y="24.2" width="12.3694581" height="12.4" rx="3.4"></rect>
                    <rect id="Rectangle-14" fill="#D8D8D8" x="9.37684729" y="48.6" width="12.3694581" height="12.4" rx="6.18472906"></rect>
                    <rect id="Rectangle-14" fill="#D8D8D8" x="25.5369458" y="48.6" width="12.3694581" height="12.4" rx="3.4"></rect>
                    <rect id="Rectangle-14" fill="#D8D8D8" x="42.2955665" y="48.6" width="12.3694581" height="12.4" rx="6.18472906"></rect>
                    <rect id="Rectangle-14" fill="#D8D8D8" x="58.6551724" y="48.6" width="12.3694581" height="12.4" rx="3.4"></rect>
                    <rect id="Rectangle-14" fill="#D8D8D8" x="9.37684729" y="71" width="12.3694581" height="12.4" rx="3.4"></rect>
                    <rect id="Rectangle-14" fill="#D8D8D8" x="25.5369458" y="71" width="12.3694581" height="12.4" rx="3.4"></rect>
                    <rect id="Rectangle-14" fill="#D8D8D8" x="42.2955665" y="71" width="12.3694581" height="12.4" rx="3.4"></rect>
                    <rect id="Rectangle-14" fill="#D8D8D8" x="58.6551724" y="71" width="12.3694581" height="12.4" rx="3.4"></rect>
                    <g id="Rectangle-15">
                        <use fill="#FFFFFF" fill-rule="evenodd" xlink:href="#path-4"></use>
                        <path stroke="#979797" stroke-width="0.5" d="M5.03817734,123.05 L5.03817734,143.2 C5.03817734,143.3933 5.19487768,143.55 5.38817734,143.55 L75.6118227,143.55 C75.8051223,143.55 75.9618227,143.3933 75.9618227,143.2 L75.9618227,123.05 L5.03817734,123.05 Z"></path>
                    </g>
                    <rect id="Rectangle-14" fill="#D8D8D8" x="8.97783251" y="127.2" width="12.3694581" height="12.4" rx="6.18472906"></rect>
                    <rect id="Rectangle-14" fill="#D8D8D8" x="25.137931" y="127.2" width="12.3694581" height="12.4" rx="6.18472906"></rect>
                    <rect id="Rectangle-14" fill="#D8D8D8" x="41.8965517" y="127.2" width="12.3694581" height="12.4" rx="6.18472906"></rect>
                    <rect id="Rectangle-14" fill="#D8D8D8" x="58.2561576" y="127.2" width="12.3694581" height="12.4" rx="6.18472906"></rect>
                </g>
                <g id="Group-6-Copy-2" transform="translate(45.000000, 415.000000)">
                    <path d="M89.5465704,80.0957316 C97.4918394,79.5040528 102.654543,96.7433633 107.079254,106.701773 C107.768984,108.254104 113.644342,122.397517 120.610112,131.777852 C123.047511,135.060134 126.451679,142.929723 133.253783,152.118 C137.788519,158.243518 143.363566,173.40405 149.978924,197.599596 C125.414854,197.963103 110.737617,198.027106 105.947212,197.791603 C85.0664786,196.765079 82.7024669,187.01046 75.9673993,183.625781 C66.1142697,178.674134 61.7906828,165.821231 59.0350724,162.995191 C51.9948615,155.775041 18.1691105,135.482174 14.1029807,134.058325 C12.5337246,133.508814 10.3900259,131.453263 9.52066114,130.402651 C9.02107667,129.798912 8.72804072,128.196329 8.65891812,127.011679 C8.56077014,125.329581 9.18068029,123.62214 9.52066114,123.560067 C9.86064198,123.497993 7.94440925,123.6469 7.11646313,123.459803 C3.73523033,122.695722 1.21261752,120.893067 0.371754356,118.725726 C-0.464692945,116.569767 0.371754356,114.050209 0.371754356,112.865551 C0.371754356,110.754948 15.652343,111.656732 15.502833,110.409865 C15.0071642,106.276142 15.503297,105.19109 14.1029807,104.301585 C13.8050183,104.112314 13.4943896,103.95342 13.1710944,103.824904 C6.23476432,101.06757 7.11646313,96.4100882 7.11646313,95.6189234 C7.11646313,92.5465578 9.38364429,91.010375 13.9180066,91.010375 C46.8079871,85.0393235 72.0175084,81.4011091 89.5465704,80.0957316 Z" id="Rectangle-26" fill="url(#linearGradient-5)"></path>
                    <g id="Group-3" transform="translate(13.182423, 0.000000)">
                        <g id="Group" transform="translate(0.599201, 0.000000)">
                            <g id="Rectangle-2">
                                <use fill="#FFFFFF" fill-rule="evenodd" xlink:href="#path-6"></use>
                                <rect stroke="#231F20" stroke-width="0.5" x="0.25" y="0.25" width="79.3934754" height="159.66178" rx="5.2"></rect>
                            </g>
                            <g id="Rectangle-1">
                                <use fill="#FFFFFF" fill-rule="evenodd" xlink:href="#path-7"></use>
                                <rect stroke="#605D5E" stroke-width="0.5" x="1.30586091" y="1.40461455" width="77.1742122" height="157.459555" rx="4.6"></rect>
                            </g>
                        </g>
                        <path d="M80.6552401,28.9575259 L80.6552401,52.593599 C80.7680814,52.514659 80.8418775,52.3837322 80.8418775,52.2355694 L80.8418775,29.3155555 C80.8418775,29.1673927 80.7680814,29.0364659 80.6552401,28.9575259 Z M80.6552401,60.2704051 L80.6552401,70.1425752 C80.7680814,70.0636352 80.8418775,69.9327084 80.8418775,69.7845456 L80.8418775,60.6284347 C80.8418775,60.4802719 80.7680814,60.349345 80.6552401,60.2704051 Z M0.436637405,54.7648439 C0.323796081,54.8437839 0.25,54.9747107 0.25,55.1228735 L0.25,64.2789844 C0.25,64.4271473 0.323796081,64.5580741 0.436637405,64.6370141 L0.436637405,54.7648439 Z" id="Rectangle-12" stroke="#231F20" stroke-width="0.5"></path>
                        <g id="Rectangle-11">
                            <use fill="#F4F4F4" fill-rule="evenodd" xlink:href="#path-8"></use>
                            <rect stroke="#605D5E" stroke-width="0.5" x="4.84387483" y="16.266178" width="71.4041278" height="127.629424" rx="0.8"></rect>
                        </g>
                        <rect id="Rectangle-5" stroke="#605D5E" stroke-width="0.5" x="33.5049933" y="148.900657" width="14.0818908" height="5.30485339" rx="2.65242669"></rect>
                        <g id="Group-2" transform="translate(23.968043, 4.804853)" stroke="#3E3A3B" stroke-width="0.5">
                            <rect id="Rectangle-3" x="8.67304038" y="1.18803191" width="14.6118202" height="1.68891179" rx="0.844455895"></rect>
                            <rect id="Rectangle-4" x="28.1524387" y="1.01291896" width="5.35255465" height="2.12669415" rx="1.06334707"></rect>
                            <ellipse id="Oval-1" cx="1.99733688" cy="2.00202224" rx="1.99733688" ry="2.00202224"></ellipse>
                        </g>
                    </g>
                    <rect id="Rectangle-16" x="34.9533955" y="40.4408493" width="37.7496671" height="16.4165824"></rect>
                    <g id="模态对话框/有图" transform="translate(21.970706, 24.224469)">
                        <rect id="Rectangle-" fill="#FFFFFF" x="0" y="0" width="63.7150466" height="73.6744186" rx="1.6"></rect>
                        <rect id="Rectangle-" fill="#EBEBEB" x="3.99467377" y="14.2143579" width="55.3262317" height="37.8382204"></rect>
                        <rect id="Line" fill="#E5E5E5" x="0" y="62.0626896" width="63.7150466" height="1"></rect>
                    </g>
                    <rect id="Rectangle-10" fill="#EBEBEB" x="47.1371505" y="30.4307381" width="13.1824234" height="4.00404449" rx="0.8"></rect>
                    <rect id="Rectangle-10" fill="#EBEBEB" x="27.7629827" y="80.0808898" width="52.1304927" height="4.00404449" rx="0.8"></rect>
                    <rect id="Rectangle-10" fill="#EBEBEB" x="43.5419441" y="90.091001" width="20.3728362" height="4.00404449" rx="0.8"></rect>
                    <rect id="Rectangle-9" fill="#EBEBEB" x="21.770972" y="110.912032" width="63.7150466" height="10.8109201" rx="5.40546006"></rect>
                    <g id="Group" transform="translate(41.944075, 141.943377)">
                        <path d="M9.62476698,19.081274 C4.39294274,19.081274 0.136817577,14.8151648 0.136817577,9.57146815 C0.136817577,4.32757128 4.39294274,0.0616622851 9.62476698,0.0616622851 C14.8561917,0.0616622851 19.1121172,4.32757128 19.1121172,9.57146815 C19.1121172,14.8151648 14.8561917,19.081274 9.62476698,19.081274 Z M9.62476698,0.361965622 C4.5581225,0.361965622 0.436418109,4.49313852 0.436418109,9.57146815 C0.436418109,14.6495976 4.5581225,18.7809707 9.62476698,18.7809707 C14.691012,18.7809707 18.8125166,14.6495976 18.8125166,9.57146815 C18.8125166,4.49313852 14.691012,0.361965622 9.62476698,0.361965622 Z" id="Fill-2" fill="#F2F2F2"></path>
                        <path d="M9.62476698,18.0802629 C4.94360852,18.0802629 1.13548602,14.2632073 1.13548602,9.57146815 C1.13548602,4.87952882 4.94360852,1.06267341 9.62476698,1.06267341 C14.305526,1.06267341 18.1134487,4.87952882 18.1134487,9.57146815 C18.1134487,14.2632073 14.305526,18.0802629 9.62476698,18.0802629 Z M9.62476698,1.36297674 C5.10878828,1.36297674 1.43508655,5.04509606 1.43508655,9.57146815 C1.43508655,14.09764 5.10878828,17.7799596 9.62476698,17.7799596 C14.1403462,17.7799596 17.8138482,14.09764 17.8138482,9.57146815 C17.8138482,5.04509606 14.1403462,1.36297674 9.62476698,1.36297674 Z" id="Fill-3" fill="#E0E0E0"></path>
                        <path d="M9.62476698,16.8570273 C5.61651132,16.8570273 2.35585885,13.588726 2.35585885,9.57146815 C2.35585885,5.55421031 5.61651132,2.285909 9.62476698,2.285909 C13.6324234,2.285909 16.8930759,5.55421031 16.8930759,9.57146815 C16.8930759,13.588726 13.6324234,16.8570273 9.62476698,16.8570273 Z M9.62476698,2.58621234 C5.78169108,2.58621234 2.65545939,5.71977755 2.65545939,9.57146815 C2.65545939,13.4231587 5.78169108,16.556724 9.62476698,16.556724 C13.4672437,16.556724 16.5934754,13.4231587 16.5934754,9.57146815 C16.5934754,5.71977755 13.4672437,2.58621234 9.62476698,2.58621234 Z" id="Fill-4" fill="#C6C6C6"></path>
                        <path d="M9.62476698,15.6337917 C6.28961385,15.6337917 3.57623169,12.9142447 3.57623169,9.57146815 C3.57623169,6.22849141 6.28961385,3.50894439 9.62476698,3.50894439 C12.9595206,3.50894439 15.6727031,6.22849141 15.6727031,9.57146815 C15.6727031,12.9142447 12.9595206,15.6337917 9.62476698,15.6337917 Z M9.62476698,3.80924772 C6.45479361,3.80924772 3.87583222,6.39405865 3.87583222,9.57146815 C3.87583222,12.7486775 6.45479361,15.3334884 9.62476698,15.3334884 C12.7943409,15.3334884 15.3731025,12.7486775 15.3731025,9.57146815 C15.3731025,6.39405865 12.7943409,3.80924772 9.62476698,3.80924772 Z" id="Fill-5" fill="#ADADAD"></path>
                    </g>
                    <path d="M48.6744948,141.569305 C49.9492975,140.127285 61.0752396,138.537069 63.7471214,138.770286 C67.8882511,139.131747 72.0427356,136.137513 74.9195815,136.137513 C78.6431175,136.137513 90.7146102,143.394235 110.805077,142.7887 C113.254016,142.714888 121.4816,144.636394 124.173728,144.553584 C136.294905,144.180739 116.959416,184.612952 105.781029,184.310322 C98.8686182,184.123184 97.1831891,172.846458 95.3394316,170.754674 C90.5140465,165.280166 83.6345217,161.361913 74.7008573,158.999915 C67.0355252,159.697193 61.9839501,159.697193 59.5461322,158.999915 C53.1094623,157.158864 50.7202571,155.739618 49.4848691,154.297003 C47.7203368,152.236485 47.3464316,149.259288 47.1698921,146.769322 C46.9730807,143.993436 47.6873007,142.68599 48.6744948,141.569305 Z" id="Rectangle-25" fill="url(#linearGradient-9)"></path>
                </g>
                <rect id="Rectangle-13-Copy-4" fill="#FBFBFB" x="0" y="0" width="375" height="317"></rect>
                <rect id="Rectangle-13-Copy-6" fill="#FBFBFB" x="0" y="634" width="375" height="317"></rect>
                <text id="呼出通知栏和快捷开关" font-family="PingFangSC-Medium, PingFang SC" font-size="15" font-weight="400" letter-spacing="0.964284599" fill="#333333">
                    <tspan x="109.178577" y="358">呼出通知栏和快捷开关</tspan>
                </text>
                <text id="静音" font-family="PingFangSC-Medium, PingFang SC" font-size="15" font-weight="400" letter-spacing="0.964284599" fill="#333333">
                    <tspan x="173.035715" y="41">静音</tspan>
                </text>
                <text id="截图" font-family="PingFangSC-Medium, PingFang SC" font-size="15" font-weight="400" letter-spacing="0.964284599" fill="#333333">
                    <tspan x="172.035715" y="675">截图</tspan>
                </text>
                <text id="在任何界面，下滑呼出“通知中心”或“通知" font-family="PingFangSC-Regular, PingFang SC" font-size="12" font-weight="normal" letter-spacing="0.771427751" fill="#A6A6A6">
                    <tspan x="32.5834392" y="381">在任何界面，下滑呼出“通知中心”或“通知栏快捷开关”</tspan>
                </text>
                <text id="按下“音量键”可呼出音量弹窗" font-family="PingFangSC-Regular, PingFang SC" font-size="12" font-weight="normal" letter-spacing="0.771427751" fill="#A6A6A6">
                    <tspan x="104.156006" y="64">按下“音量键”可呼出音量弹窗</tspan>
                </text>
                <text id="任意界面，长按“音量下键+电源键”截屏" font-family="PingFangSC-Regular, PingFang SC" font-size="12" font-weight="normal" letter-spacing="0.771427751" fill="#A6A6A6">
                    <tspan x="74.0974364" y="698">任意界面，长按“音量下键+电源键”截屏</tspan>
                </text>
                <g id="Group-5-Copy" transform="translate(49.000000, 98.000000)">
                    <path d="M12.7052353,48.5457589 C48.1650037,56.6285192 70.7656919,63.2881585 80.5072998,68.5246769 C89.0658293,73.1252416 91.5001635,80.448259 95.7569208,82.1719028 C108.167898,87.1973489 117.929066,73.1785835 118.987944,75.8860038 C119.920456,78.2703231 123.798578,82.5415203 126.131918,97.5640243 C127.072933,103.62246 126.920588,116.023871 126.920588,129.556746 C126.920588,132.009554 125.848333,137.058954 127.876619,142.122087 C129.826485,146.989463 134.866489,151.836204 135.511734,156.027511 C135.722417,157.396039 138.805535,160.400526 140.703125,165.071405 C141.098958,166.04574 141.098958,167.67397 140.703125,169.956097 C124.316347,175.834152 112.883585,178.793955 106.40484,178.835506 C88.5174534,178.950225 76.780578,170.35453 76.4763332,170.155081 C60.9296284,159.963397 53.9782027,152.733538 53.9616388,145.880217 C53.9302907,132.909883 40.5014729,120.702263 13.6751854,109.257357 C11.7299537,109.211655 10.3924999,109.100928 9.66282419,108.925178 C4.05850202,107.575312 3.5961179,105.494453 3.16385272,102.895873 C2.73158753,100.297293 6.55865648,98.2008159 6.24717486,98.0013166 C0.960888342,94.6155293 0.825667896,92.2522912 0.756254087,90.8696884 C0.419349149,84.1591263 9.76731947,83.2034484 9.66282419,83.2034484 C8.57244867,83.2034484 6.16610648,82.0417658 5.01007252,81.7967409 C1.09788199,80.9675405 0.0497862442,75.9657723 0.00120918694,73.9822604 C-0.131797807,68.5512817 10.7523207,66.6070635 10.7265592,65.7084504 C10.7231655,65.5900742 13.9575294,65.7936101 13.9539712,65.7084504 C13.9333967,65.2160311 13.8199384,64.9327028 13.8869548,64.9327028 C13.9539712,64.9327028 11.3208491,65.2204287 10.4776743,64.9327028 C2.76119285,62.2995224 2.73913168,57.0784736 2.73158753,56.1315187 C2.70046071,52.2244259 6.02500998,49.6958393 12.7052353,48.5457589 Z" id="Rectangle-28" fill="url(#linearGradient-10)"></path>
                    <g id="Group-7" transform="translate(6.780764, 0.000000)">
                        <g id="Group-3">
                            <g id="Group" transform="translate(0.598303, 0.000000)">
                                <g id="Rectangle-2">
                                    <use fill="#FFFFFF" fill-rule="evenodd" xlink:href="#path-11"></use>
                                    <rect stroke="#231F20" stroke-width="0.5" x="0.25" y="0.25" width="79.2736917" height="159.321429" rx="5.2"></rect>
                                </g>
                                <g id="Rectangle-1">
                                    <use fill="#FFFFFF" fill-rule="evenodd" xlink:href="#path-12"></use>
                                    <rect stroke="#605D5E" stroke-width="0.5" x="1.30427786" y="1.40216095" width="77.0577558" height="157.123884" rx="4.6"></rect>
                                </g>
                            </g>
                            <path d="M80.5346891,28.8969159 L80.5346891,52.4809092 C80.6469319,52.4021121 80.720297,52.2716921 80.720297,52.1241368 L80.720297,29.2536883 C80.720297,29.1061329 80.6469319,28.9757129 80.5346891,28.8969159 Z M80.5346891,60.1432538 L80.5346891,69.992593 C80.6469319,69.913796 80.720297,69.783376 80.720297,69.6358206 L80.720297,60.5000262 C80.720297,60.3524708 80.6469319,60.2220508 80.5346891,60.1432538 Z M0.435607934,54.6493922 C0.323365174,54.7281892 0.25,54.8586092 0.25,55.0061646 L0.25,64.141959 C0.25,64.2895144 0.323365174,64.4199344 0.435607934,64.4987314 L0.435607934,54.6493922 Z" id="Rectangle-12" stroke="#231F20" stroke-width="0.5"></path>
                            <g id="Rectangle-11">
                                <use fill="#F4F4F4" fill-rule="evenodd" xlink:href="#path-13"></use>
                                <rect stroke="#605D5E" stroke-width="0.5" x="4.83698727" y="16.2321429" width="71.2963225" height="127.357143" rx="0.8"></rect>
                            </g>
                            <rect id="Rectangle-3" stroke="#3E3A3B" stroke-width="0.5" x="32.5925193" y="5.9806814" width="14.5891632" height="1.68426025" rx="0.842130127"></rect>
                            <rect id="Rectangle-4" stroke="#3E3A3B" stroke-width="0.5" x="52.0427123" y="5.80594058" width="5.34377996" height="2.1211123" rx="1.06055615"></rect>
                            <ellipse id="Oval-1" stroke="#3E3A3B" stroke-width="0.5" cx="25.9264498" cy="6.79241071" rx="1.99434229" ry="1.99776786"></ellipse>
                        </g>
                        <rect id="Rectangle-14" fill="#D8D8D8" x="9.37340877" y="24.1729911" width="12.3649222" height="12.3861607" rx="3.4"></rect>
                        <rect id="Rectangle-14" fill="#D8D8D8" x="25.5275813" y="24.1729911" width="12.3649222" height="12.3861607" rx="3.4"></rect>
                        <rect id="Rectangle-14" fill="#D8D8D8" x="42.2800566" y="24.1729911" width="12.3649222" height="12.3861607" rx="3.4"></rect>
                        <rect id="Rectangle-14" fill="#D8D8D8" x="58.6336634" y="24.1729911" width="12.3649222" height="12.3861607" rx="3.4"></rect>
                        <rect id="Rectangle-14" fill="#D8D8D8" x="9.37340877" y="48.5457589" width="12.3649222" height="12.3861607" rx="6.1824611"></rect>
                        <rect id="Rectangle-14" fill="#D8D8D8" x="25.5275813" y="48.5457589" width="12.3649222" height="12.3861607" rx="3.4"></rect>
                        <rect id="Rectangle-14" fill="#D8D8D8" x="42.2800566" y="48.5457589" width="12.3649222" height="12.3861607" rx="6.1824611"></rect>
                        <rect id="Rectangle-14" fill="#D8D8D8" x="58.6336634" y="48.5457589" width="12.3649222" height="12.3861607" rx="3.4"></rect>
                        <rect id="Rectangle-14" fill="#D8D8D8" x="9.37340877" y="70.9207589" width="12.3649222" height="12.3861607" rx="3.4"></rect>
                        <rect id="Rectangle-14" fill="#D8D8D8" x="25.5275813" y="70.9207589" width="12.3649222" height="12.3861607" rx="3.4"></rect>
                        <rect id="Rectangle-14" fill="#D8D8D8" x="42.2800566" y="70.9207589" width="12.3649222" height="12.3861607" rx="3.4"></rect>
                        <rect id="Rectangle-14" fill="#D8D8D8" x="58.6336634" y="70.9207589" width="12.3649222" height="12.3861607" rx="3.4"></rect>
                        <g id="Rectangle-15">
                            <use fill="#FFFFFF" fill-rule="evenodd" xlink:href="#path-14"></use>
                            <path stroke="#979797" stroke-width="0.5" d="M5.0364215,122.912946 L5.0364215,143.039509 C5.0364215,143.232809 5.19312184,143.389509 5.3864215,143.389509 L75.5838755,143.389509 C75.7771752,143.389509 75.9338755,143.232809 75.9338755,143.039509 L75.9338755,122.912946 L5.0364215,122.912946 Z"></path>
                        </g>
                        <rect id="Rectangle-14" fill="#D8D8D8" x="8.97454031" y="127.058036" width="12.3649222" height="12.3861607" rx="6.1824611"></rect>
                        <rect id="Rectangle-14" fill="#D8D8D8" x="25.1287129" y="127.058036" width="12.3649222" height="12.3861607" rx="6.1824611"></rect>
                        <rect id="Rectangle-14" fill="#D8D8D8" x="41.8811881" y="127.058036" width="12.3649222" height="12.3861607" rx="6.1824611"></rect>
                        <rect id="Rectangle-14" fill="#D8D8D8" x="58.2347949" y="127.058036" width="12.3649222" height="12.3861607" rx="6.1824611"></rect>
                    </g>
                    <rect id="Rectangle-16" x="22.5360679" y="40.3549107" width="37.6930693" height="16.3816964"></rect>
                    <path d="M90.7909368,35.065405 C92.0300157,35.065405 99.1088506,43.1722738 101.913309,45.3782902 C104.521334,47.4297895 108.70535,44.4266055 112.875731,51.578229 C113.774814,53.1200304 117.112617,62.42704 121.52167,75.9893752 C121.911313,77.187926 123.885936,87.5883519 125.72506,95.5471942 C126.184427,97.5351147 127.317964,107.223469 126.969381,113.919806 C126.702755,119.041748 122.859551,121.479694 119.781953,121.712818 C112.067584,122.297169 92.2308716,107.514538 89.2569296,103.214399 C87.8351659,101.158615 93.7385586,84.3119442 94.0001244,82.6426285 C94.3337518,80.5134142 93.8181105,78.5865165 94.0001244,77.2486119 C94.6047803,72.8040493 93.2666339,69.1013158 93.4149221,67.5448752 C93.6154734,65.4398799 93.6463211,64.3430293 93.5074652,64.2543234 C89.8029904,61.8877806 85.9814755,56.1182519 85.9814755,54.1112081 C85.9814755,43.5984302 85.6289522,37.0577856 87.5545132,35.8044832 C89.4800743,34.5511808 90.2231277,35.065405 90.7909368,35.065405 Z" id="Rectangle-27" fill="url(#linearGradient-15)"></path>
                    <g id="Group" transform="translate(76.383310, 37.558036)">
                        <path d="M9.61033663,19.0407254 C4.38635644,19.0407254 0.136612447,14.7836819 0.136612447,9.55112835 C0.136612447,4.318375 4.38635644,0.06153125 9.61033663,0.06153125 C14.833918,0.06153125 19.0834625,4.318375 19.0834625,9.55112835 C19.0834625,14.7836819 14.833918,19.0407254 9.61033663,19.0407254 Z M9.61033663,0.361196429 C4.55128854,0.361196429 0.435763791,4.4835904 0.435763791,9.55112835 C0.435763791,14.6184665 4.55128854,18.7410603 9.61033663,18.7410603 C14.6689859,18.7410603 18.7843112,14.6184665 18.7843112,9.55112835 C18.7843112,4.4835904 14.6689859,0.361196429 9.61033663,0.361196429 Z" id="Fill-2" fill="#F2F2F2"></path>
                        <path d="M9.61033663,18.0418415 C4.93619661,18.0418415 1.13378359,14.2328973 1.13378359,9.55112835 C1.13378359,4.8691596 4.93619661,1.06041518 9.61033663,1.06041518 C14.2840778,1.06041518 18.0862914,4.8691596 18.0862914,9.55112835 C18.0862914,14.2328973 14.2840778,18.0418415 9.61033663,18.0418415 Z M9.61033663,1.36008036 C5.10112871,1.36008036 1.43293494,5.034375 1.43293494,9.55112835 C1.43293494,14.0676819 5.10112871,17.7421763 9.61033663,17.7421763 C14.1191457,17.7421763 17.78714,14.0676819 17.78714,9.55112835 C17.78714,5.034375 14.1191457,1.36008036 9.61033663,1.36008036 Z" id="Fill-3" fill="#E0E0E0"></path>
                        <path d="M9.61033663,16.8212054 C5.60809052,16.8212054 2.35232673,13.5598493 2.35232673,9.55112835 C2.35232673,5.54240737 5.60809052,2.28105134 9.61033663,2.28105134 C13.6119844,2.28105134 16.8677482,5.54240737 16.8677482,9.55112835 C16.8677482,13.5598493 13.6119844,16.8212054 9.61033663,16.8212054 Z M9.61033663,2.58071652 C5.77302263,2.58071652 2.65147808,5.70762277 2.65147808,9.55112835 C2.65147808,13.3946339 5.77302263,16.5215402 9.61033663,16.5215402 C13.4470523,16.5215402 16.5685969,13.3946339 16.5685969,9.55112835 C16.5685969,5.70762277 13.4470523,2.58071652 9.61033663,2.58071652 Z" id="Fill-4" fill="#C6C6C6"></path>
                        <path d="M9.61033663,15.6005692 C6.28018388,15.6005692 3.57086987,12.8868013 3.57086987,9.55112835 C3.57086987,6.21525558 6.28018388,3.50148772 9.61033663,3.50148772 C12.9400905,3.50148772 15.6492051,6.21525558 15.6492051,9.55112835 C15.6492051,12.8868013 12.9400905,15.6005692 9.61033663,15.6005692 Z M9.61033663,3.8011529 C6.44511598,3.8011529 3.87002122,6.38047098 3.87002122,9.55112835 C3.87002122,12.7215859 6.44511598,15.300904 9.61033663,15.300904 C12.7751584,15.300904 15.3500537,12.7215859 15.3500537,9.55112835 C15.3500537,6.38047098 12.7751584,3.8011529 9.61033663,3.8011529 Z" id="Fill-5" fill="#ADADAD"></path>
                    </g>
                </g>
                <g id="Group-5-Copy-2" transform="translate(46.000000, 732.000000)">
                    <path d="M14.7052353,32.5457589 C50.8316704,51.2951859 73.7656919,63.2881585 83.5072998,68.5246769 C92.0658293,73.1252416 94.5001635,80.448259 98.7569208,82.1719028 C111.167898,87.1973489 120.929066,73.1785835 121.987944,75.8860038 C122.920456,78.2703231 126.798578,82.5415203 129.131918,97.5640243 C130.072933,103.62246 129.920588,116.023871 129.920588,129.556746 C129.920588,132.009554 128.848333,137.058954 130.876619,142.122087 C132.826485,146.989463 137.866489,151.836204 138.511734,156.027511 C138.722417,157.396039 141.805535,160.400526 143.703125,165.071405 C144.098958,166.04574 144.098958,167.67397 143.703125,169.956097 C127.316347,175.834152 115.883585,178.793955 109.40484,178.835506 C91.5174534,178.950225 58.7833444,151.807711 58.4790996,151.608262 C42.9323948,141.416578 32.1135061,132.877766 32.0969423,126.024445 C32.0655941,113.054112 26.5916752,102.131749 15.6751854,93.257357 C13.7299537,93.2116549 12.3924999,93.1009284 11.6628242,92.9251777 C6.05850202,91.5753125 5.5961179,89.4944532 5.16385272,86.8958729 C4.73158753,84.2972927 8.55865648,82.2008159 8.24717486,82.0013166 C2.96088834,78.6155293 2.8256679,76.2522912 2.75625409,74.8696884 C2.41934915,68.1591263 11.7673195,67.2034484 11.6628242,67.2034484 C10.5724487,67.2034484 8.16610648,66.0417658 7.01007252,65.7967409 C3.09788199,64.9675405 2.04978624,59.9657723 2.00120919,57.9822604 C1.86820219,52.5512817 12.7523207,50.6070635 12.7265592,49.7084504 C12.7231655,49.5900742 15.9575294,49.7936101 15.9539712,49.7084504 C15.9333967,49.2160311 15.8199384,48.9327028 15.8869548,48.9327028 C15.9539712,48.9327028 13.3208491,49.2204287 12.4776743,48.9327028 C4.76119285,46.2995224 4.73913168,41.0784736 4.73158753,40.1315187 C4.70046071,36.2244259 8.02500998,33.6958393 14.7052353,32.5457589 Z" id="Rectangle-28" fill="url(#linearGradient-10)"></path>
                    <g id="Group-7" transform="translate(9.780764, 0.000000)">
                        <g id="Group-3">
                            <g id="Group" transform="translate(0.598303, 0.000000)">
                                <g id="Rectangle-2">
                                    <use fill="#FFFFFF" fill-rule="evenodd" xlink:href="#path-16"></use>
                                    <rect stroke="#231F20" stroke-width="0.5" x="0.25" y="0.25" width="79.2736917" height="159.321429" rx="5.2"></rect>
                                </g>
                                <g id="Rectangle-1">
                                    <use fill="#FFFFFF" fill-rule="evenodd" xlink:href="#path-17"></use>
                                    <rect stroke="#605D5E" stroke-width="0.5" x="1.30427786" y="1.40216095" width="77.0577558" height="157.123884" rx="4.6"></rect>
                                </g>
                            </g>
                            <path d="M80.5346891,28.8969159 L80.5346891,52.4809092 C80.6469319,52.4021121 80.720297,52.2716921 80.720297,52.1241368 L80.720297,29.2536883 C80.720297,29.1061329 80.6469319,28.9757129 80.5346891,28.8969159 Z M80.5346891,60.1432538 L80.5346891,69.992593 C80.6469319,69.913796 80.720297,69.783376 80.720297,69.6358206 L80.720297,60.5000262 C80.720297,60.3524708 80.6469319,60.2220508 80.5346891,60.1432538 Z M0.435607934,54.6493922 C0.323365174,54.7281892 0.25,54.8586092 0.25,55.0061646 L0.25,64.141959 C0.25,64.2895144 0.323365174,64.4199344 0.435607934,64.4987314 L0.435607934,54.6493922 Z" id="Rectangle-12" stroke="#231F20" stroke-width="0.5"></path>
                            <g id="Rectangle-11">
                                <use fill="#F4F4F4" fill-rule="evenodd" xlink:href="#path-18"></use>
                                <rect stroke="#605D5E" stroke-width="0.5" x="4.83698727" y="16.2321429" width="71.2963225" height="127.357143" rx="0.8"></rect>
                            </g>
                            <g id="Group-2" transform="translate(23.932107, 4.794643)" stroke="#3E3A3B" stroke-width="0.5">
                                <rect id="Rectangle-3" x="8.66041178" y="1.18603855" width="14.5891632" height="1.68426025" rx="0.842130127"></rect>
                                <rect id="Rectangle-4" x="28.1106048" y="1.01129773" width="5.34377996" height="2.1211123" rx="1.06055615"></rect>
                                <ellipse id="Oval-1" cx="1.99434229" cy="1.99776786" rx="1.99434229" ry="1.99776786"></ellipse>
                            </g>
                        </g>
                        <rect id="Rectangle-14" fill="#D8D8D8" x="9.37340877" y="24.1729911" width="12.3649222" height="12.3861607" rx="3.4"></rect>
                        <rect id="Rectangle-14" fill="#D8D8D8" x="25.5275813" y="24.1729911" width="12.3649222" height="12.3861607" rx="3.4"></rect>
                        <rect id="Rectangle-14" fill="#D8D8D8" x="42.2800566" y="24.1729911" width="12.3649222" height="12.3861607" rx="3.4"></rect>
                        <rect id="Rectangle-14" fill="#D8D8D8" x="58.6336634" y="24.1729911" width="12.3649222" height="12.3861607" rx="3.4"></rect>
                        <rect id="Rectangle-14" fill="#D8D8D8" x="9.37340877" y="48.5457589" width="12.3649222" height="12.3861607" rx="6.1824611"></rect>
                        <rect id="Rectangle-14" fill="#D8D8D8" x="25.5275813" y="48.5457589" width="12.3649222" height="12.3861607" rx="3.4"></rect>
                        <rect id="Rectangle-14" fill="#D8D8D8" x="42.2800566" y="48.5457589" width="12.3649222" height="12.3861607" rx="6.1824611"></rect>
                        <rect id="Rectangle-14" fill="#D8D8D8" x="58.6336634" y="48.5457589" width="12.3649222" height="12.3861607" rx="3.4"></rect>
                        <rect id="Rectangle-14" fill="#D8D8D8" x="9.37340877" y="70.9207589" width="12.3649222" height="12.3861607" rx="3.4"></rect>
                        <rect id="Rectangle-14" fill="#D8D8D8" x="25.5275813" y="70.9207589" width="12.3649222" height="12.3861607" rx="3.4"></rect>
                        <rect id="Rectangle-14" fill="#D8D8D8" x="42.2800566" y="70.9207589" width="12.3649222" height="12.3861607" rx="3.4"></rect>
                        <rect id="Rectangle-14" fill="#D8D8D8" x="58.6336634" y="70.9207589" width="12.3649222" height="12.3861607" rx="3.4"></rect>
                        <g id="Rectangle-15">
                            <use fill="#FFFFFF" fill-rule="evenodd" xlink:href="#path-19"></use>
                            <path stroke="#979797" stroke-width="0.5" d="M5.0364215,122.912946 L5.0364215,143.039509 C5.0364215,143.232809 5.19312184,143.389509 5.3864215,143.389509 L75.5838755,143.389509 C75.7771752,143.389509 75.9338755,143.232809 75.9338755,143.039509 L75.9338755,122.912946 L5.0364215,122.912946 Z"></path>
                        </g>
                        <rect id="Rectangle-14" fill="#D8D8D8" x="8.97454031" y="127.058036" width="12.3649222" height="12.3861607" rx="6.1824611"></rect>
                        <rect id="Rectangle-14" fill="#D8D8D8" x="25.1287129" y="127.058036" width="12.3649222" height="12.3861607" rx="6.1824611"></rect>
                        <rect id="Rectangle-14" fill="#D8D8D8" x="41.8811881" y="127.058036" width="12.3649222" height="12.3861607" rx="6.1824611"></rect>
                        <rect id="Rectangle-14" fill="#D8D8D8" x="58.2347949" y="127.058036" width="12.3649222" height="12.3861607" rx="6.1824611"></rect>
                    </g>
                    <rect id="Rectangle-16" x="25.5360679" y="40.3549107" width="37.6930693" height="16.3816964"></rect>
                    <path d="M93.7909368,35.065405 C95.0300157,35.065405 102.108851,43.1722738 104.913309,45.3782902 C107.521334,47.4297895 111.70535,44.4266055 115.875731,51.578229 C116.774814,53.1200304 120.112617,62.42704 124.52167,75.9893752 C124.911313,77.187926 126.885936,87.5883519 128.72506,95.5471942 C129.184427,97.5351147 130.317964,107.223469 129.969381,113.919806 C129.702755,119.041748 125.859551,121.479694 122.781953,121.712818 C115.067584,122.297169 95.2308716,107.514538 92.2569296,103.214399 C90.8351659,101.158615 96.7385586,84.3119442 97.0001244,82.6426285 C97.3337518,80.5134142 96.8181105,78.5865165 97.0001244,77.2486119 C97.6047803,72.8040493 96.2666339,69.1013158 96.4149221,67.5448752 C96.6154734,65.4398799 96.6463211,64.3430293 96.5074652,64.2543234 C92.8029904,61.8877806 88.9814755,56.1182519 88.9814755,54.1112081 C88.9814755,43.5984302 88.6289522,37.0577856 90.5545132,35.8044832 C92.4800743,34.5511808 93.2231277,35.065405 93.7909368,35.065405 Z" id="Rectangle-27" fill="url(#linearGradient-15)"></path>
                    <g id="Group" transform="translate(79.000000, 38.000000)">
                        <path d="M9.61033663,19.0407254 C4.38635644,19.0407254 0.136612447,14.7836819 0.136612447,9.55112835 C0.136612447,4.318375 4.38635644,0.06153125 9.61033663,0.06153125 C14.833918,0.06153125 19.0834625,4.318375 19.0834625,9.55112835 C19.0834625,14.7836819 14.833918,19.0407254 9.61033663,19.0407254 Z M9.61033663,0.361196429 C4.55128854,0.361196429 0.435763791,4.4835904 0.435763791,9.55112835 C0.435763791,14.6184665 4.55128854,18.7410603 9.61033663,18.7410603 C14.6689859,18.7410603 18.7843112,14.6184665 18.7843112,9.55112835 C18.7843112,4.4835904 14.6689859,0.361196429 9.61033663,0.361196429 Z" id="Fill-2" fill="#F2F2F2"></path>
                        <path d="M9.61033663,18.0418415 C4.93619661,18.0418415 1.13378359,14.2328973 1.13378359,9.55112835 C1.13378359,4.8691596 4.93619661,1.06041518 9.61033663,1.06041518 C14.2840778,1.06041518 18.0862914,4.8691596 18.0862914,9.55112835 C18.0862914,14.2328973 14.2840778,18.0418415 9.61033663,18.0418415 Z M9.61033663,1.36008036 C5.10112871,1.36008036 1.43293494,5.034375 1.43293494,9.55112835 C1.43293494,14.0676819 5.10112871,17.7421763 9.61033663,17.7421763 C14.1191457,17.7421763 17.78714,14.0676819 17.78714,9.55112835 C17.78714,5.034375 14.1191457,1.36008036 9.61033663,1.36008036 Z" id="Fill-3" fill="#E0E0E0"></path>
                        <path d="M9.61033663,16.8212054 C5.60809052,16.8212054 2.35232673,13.5598493 2.35232673,9.55112835 C2.35232673,5.54240737 5.60809052,2.28105134 9.61033663,2.28105134 C13.6119844,2.28105134 16.8677482,5.54240737 16.8677482,9.55112835 C16.8677482,13.5598493 13.6119844,16.8212054 9.61033663,16.8212054 Z M9.61033663,2.58071652 C5.77302263,2.58071652 2.65147808,5.70762277 2.65147808,9.55112835 C2.65147808,13.3946339 5.77302263,16.5215402 9.61033663,16.5215402 C13.4470523,16.5215402 16.5685969,13.3946339 16.5685969,9.55112835 C16.5685969,5.70762277 13.4470523,2.58071652 9.61033663,2.58071652 Z" id="Fill-4" fill="#C6C6C6"></path>
                        <path d="M9.61033663,15.6005692 C6.28018388,15.6005692 3.57086987,12.8868013 3.57086987,9.55112835 C3.57086987,6.21525558 6.28018388,3.50148772 9.61033663,3.50148772 C12.9400905,3.50148772 15.6492051,6.21525558 15.6492051,9.55112835 C15.6492051,12.8868013 12.9400905,15.6005692 9.61033663,15.6005692 Z M9.61033663,3.8011529 C6.44511598,3.8011529 3.87002122,6.38047098 3.87002122,9.55112835 C3.87002122,12.7215859 6.44511598,15.300904 9.61033663,15.300904 C12.7751584,15.300904 15.3500537,12.7215859 15.3500537,9.55112835 C15.3500537,6.38047098 12.7751584,3.8011529 9.61033663,3.8011529 Z" id="Fill-5" fill="#ADADAD"></path>
                    </g>
                    <g id="Group-Copy" transform="translate(0.000000, 28.000000)">
                        <path d="M9.61033663,19.0407254 C4.38635644,19.0407254 0.136612447,14.7836819 0.136612447,9.55112835 C0.136612447,4.318375 4.38635644,0.06153125 9.61033663,0.06153125 C14.833918,0.06153125 19.0834625,4.318375 19.0834625,9.55112835 C19.0834625,14.7836819 14.833918,19.0407254 9.61033663,19.0407254 Z M9.61033663,0.361196429 C4.55128854,0.361196429 0.435763791,4.4835904 0.435763791,9.55112835 C0.435763791,14.6184665 4.55128854,18.7410603 9.61033663,18.7410603 C14.6689859,18.7410603 18.7843112,14.6184665 18.7843112,9.55112835 C18.7843112,4.4835904 14.6689859,0.361196429 9.61033663,0.361196429 Z" id="Fill-2" fill="#F2F2F2"></path>
                        <path d="M9.61033663,18.0418415 C4.93619661,18.0418415 1.13378359,14.2328973 1.13378359,9.55112835 C1.13378359,4.8691596 4.93619661,1.06041518 9.61033663,1.06041518 C14.2840778,1.06041518 18.0862914,4.8691596 18.0862914,9.55112835 C18.0862914,14.2328973 14.2840778,18.0418415 9.61033663,18.0418415 Z M9.61033663,1.36008036 C5.10112871,1.36008036 1.43293494,5.034375 1.43293494,9.55112835 C1.43293494,14.0676819 5.10112871,17.7421763 9.61033663,17.7421763 C14.1191457,17.7421763 17.78714,14.0676819 17.78714,9.55112835 C17.78714,5.034375 14.1191457,1.36008036 9.61033663,1.36008036 Z" id="Fill-3" fill="#E0E0E0"></path>
                        <path d="M9.61033663,16.8212054 C5.60809052,16.8212054 2.35232673,13.5598493 2.35232673,9.55112835 C2.35232673,5.54240737 5.60809052,2.28105134 9.61033663,2.28105134 C13.6119844,2.28105134 16.8677482,5.54240737 16.8677482,9.55112835 C16.8677482,13.5598493 13.6119844,16.8212054 9.61033663,16.8212054 Z M9.61033663,2.58071652 C5.77302263,2.58071652 2.65147808,5.70762277 2.65147808,9.55112835 C2.65147808,13.3946339 5.77302263,16.5215402 9.61033663,16.5215402 C13.4470523,16.5215402 16.5685969,13.3946339 16.5685969,9.55112835 C16.5685969,5.70762277 13.4470523,2.58071652 9.61033663,2.58071652 Z" id="Fill-4" fill="#C6C6C6"></path>
                        <path d="M9.61033663,15.6005692 C6.28018388,15.6005692 3.57086987,12.8868013 3.57086987,9.55112835 C3.57086987,6.21525558 6.28018388,3.50148772 9.61033663,3.50148772 C12.9400905,3.50148772 15.6492051,6.21525558 15.6492051,9.55112835 C15.6492051,12.8868013 12.9400905,15.6005692 9.61033663,15.6005692 Z M9.61033663,3.8011529 C6.44511598,3.8011529 3.87002122,6.38047098 3.87002122,9.55112835 C3.87002122,12.7215859 6.44511598,15.300904 9.61033663,15.300904 C12.7751584,15.300904 15.3500537,12.7215859 15.3500537,9.55112835 C15.3500537,6.38047098 12.7751584,3.8011529 9.61033663,3.8011529 Z" id="Fill-5" fill="#ADADAD"></path>
                    </g>
                </g>
                <g id="Group-6-Copy" transform="translate(245.000000, 98.000000)">
                    <g id="Group-3">
                        <g id="Group" transform="translate(0.598522, 0.000000)">
                            <g id="Rectangle-2">
                                <use fill="#FFFFFF" fill-rule="evenodd" xlink:href="#path-20"></use>
                                <rect stroke="#231F20" stroke-width="0.5" x="0.25" y="0.25" width="79.3029557" height="159.5" rx="5.2"></rect>
                            </g>
                            <g id="Rectangle-1">
                                <use fill="#FFFFFF" fill-rule="evenodd" xlink:href="#path-21"></use>
                                <rect stroke="#605D5E" stroke-width="0.5" x="1.30466461" y="1.40344828" width="77.0862069" height="157.3" rx="4.6"></rect>
                            </g>
                        </g>
                        <path d="M80.5641406,28.9287798 L80.5641406,52.5399702 C80.6765296,52.4611382 80.75,52.3305943 80.75,52.1828906 L80.75,29.2858594 C80.75,29.1381557 80.6765296,29.0076118 80.5641406,28.9287798 Z M80.5641406,60.2100298 L80.5641406,70.0712202 C80.6765296,69.9923882 80.75,69.8618443 80.75,69.7141406 L80.75,60.5671094 C80.75,60.4194057 80.6765296,60.2888618 80.5641406,60.2100298 Z M0.435859441,54.7100298 C0.323470435,54.7888618 0.25,54.9194057 0.25,55.0671094 L0.25,64.2141406 C0.25,64.3618443 0.323470435,64.4923882 0.435859441,64.5712202 L0.435859441,54.7100298 Z" id="Rectangle-12" stroke="#231F20" stroke-width="0.5"></path>
                        <rect id="Rectangle-11" stroke="#605D5E" stroke-width="0.5" x="4.83866995" y="16.25" width="71.3226601" height="127.5" rx="0.8"></rect>
                        <path d="M5.38817734,16.2 L75.6118227,16.2 C75.9431935,16.2 76.2118227,16.4686292 76.2118227,16.8 L76.2118227,35.4 L4.78817734,35.4 L4.78817734,16.8 C4.78817734,16.4686292 5.05680649,16.2 5.38817734,16.2 Z" id="Rectangle-9" fill="#D8D8D8"></path>
                        <g id="Group-2" transform="translate(23.940887, 4.800000)" stroke="#3E3A3B" stroke-width="0.5">
                            <rect id="Rectangle-3" x="8.66349703" y="1.1870844" width="14.5946984" height="1.68670077" rx="0.843350384"></rect>
                            <rect id="Rectangle-4" x="28.1208251" y="1.01214834" width="5.34592368" height="2.12404092" rx="1.06202046"></rect>
                            <ellipse id="Oval-1" cx="1.99507389" cy="2" rx="1.99507389" ry="2"></ellipse>
                        </g>
                    </g>
                    <rect id="Active" fill="#FFFFFF" x="17.1576355" y="24.8" width="28.8423645" height="1" rx="0.4"></rect>
                    <rect id="Active" fill="#B5B6B5" x="47.1576355" y="24.8" width="22.8400002" height="1" rx="0.4"></rect>
                    <g id="handle" filter="url(#filter-22)" transform="translate(44.490148, 22.200000)">
                        <g>
                            <use fill="black" fill-opacity="1" filter="url(#filter-24)" xlink:href="#path-23"></use>
                            <use fill="#FFFFFF" fill-rule="evenodd" xlink:href="#path-23"></use>
                        </g>
                        <ellipse id="Oval-2" fill="#D8D8D8" cx="2.59359606" cy="2.6" rx="1.19704433" ry="1.2"></ellipse>
                    </g>
                    <rect id="Rectangle-10" fill="#FFFFFF" x="8.17980296" y="22.4" width="5.5862069" height="5.6"></rect>
                </g>
                <g id="Group-10" transform="translate(247.000000, 732.000000)">
                    <g id="Group-3">
                        <g id="Group" transform="translate(0.598522, 0.000000)">
                            <g id="Rectangle-2">
                                <use fill="#FFFFFF" fill-rule="evenodd" xlink:href="#path-25"></use>
                                <rect stroke="#231F20" stroke-width="0.5" x="0.25" y="0.25" width="79.3029557" height="159.5" rx="5.2"></rect>
                            </g>
                            <g id="Rectangle-1">
                                <use fill="#FFFFFF" fill-rule="evenodd" xlink:href="#path-26"></use>
                                <rect stroke="#605D5E" stroke-width="0.5" x="1.30466461" y="1.40344828" width="77.0862069" height="157.3" rx="4.6"></rect>
                            </g>
                        </g>
                        <path d="M80.5641406,28.9287798 L80.5641406,52.5399702 C80.6765296,52.4611382 80.75,52.3305943 80.75,52.1828906 L80.75,29.2858594 C80.75,29.1381557 80.6765296,29.0076118 80.5641406,28.9287798 Z M80.5641406,60.2100298 L80.5641406,70.0712202 C80.6765296,69.9923882 80.75,69.8618443 80.75,69.7141406 L80.75,60.5671094 C80.75,60.4194057 80.6765296,60.2888618 80.5641406,60.2100298 Z M0.435859441,54.7100298 C0.323470435,54.7888618 0.25,54.9194057 0.25,55.0671094 L0.25,64.2141406 C0.25,64.3618443 0.323470435,64.4923882 0.435859441,64.5712202 L0.435859441,54.7100298 Z" id="Rectangle-12" stroke="#231F20" stroke-width="0.5"></path>
                        <g id="Rectangle-11">
                            <use fill="#F4F4F4" fill-rule="evenodd" xlink:href="#path-27"></use>
                            <rect stroke="#605D5E" stroke-width="0.5" x="4.83866995" y="16.25" width="71.3226601" height="127.5" rx="0.8"></rect>
                        </g>
                        <g id="Group-2" transform="translate(23.940887, 4.800000)" stroke="#3E3A3B" stroke-width="0.5">
                            <rect id="Rectangle-3" x="8.66349703" y="1.1870844" width="14.5946984" height="1.68670077" rx="0.843350384"></rect>
                            <rect id="Rectangle-4" x="28.1208251" y="1.01214834" width="5.34592368" height="2.12404092" rx="1.06202046"></rect>
                            <ellipse id="Oval-1" cx="1.99507389" cy="2" rx="1.99507389" ry="2"></ellipse>
                        </g>
                    </g>
                    <g id="Group-6" transform="translate(4.588670, 24.200000)">
                        <rect id="Rectangle-14" fill="#D8D8D8" x="4.78817734" y="0" width="12.3694581" height="12.4" rx="3.4"></rect>
                        <rect id="Rectangle-14" fill="#D8D8D8" x="20.9482759" y="0" width="12.3694581" height="12.4" rx="3.4"></rect>
                        <rect id="Rectangle-14" fill="#D8D8D8" x="37.7068966" y="0" width="12.3694581" height="12.4" rx="3.4"></rect>
                        <rect id="Rectangle-14" fill="#D8D8D8" x="54.0665025" y="0" width="12.3694581" height="12.4" rx="3.4"></rect>
                        <rect id="Rectangle-14" fill="#D8D8D8" x="4.78817734" y="24.4" width="12.3694581" height="12.4" rx="6.18472906"></rect>
                        <rect id="Rectangle-14" fill="#D8D8D8" x="20.9482759" y="24.4" width="12.3694581" height="12.4" rx="3.4"></rect>
                        <rect id="Rectangle-14" fill="#D8D8D8" x="37.7068966" y="24.4" width="12.3694581" height="12.4" rx="6.18472906"></rect>
                        <rect id="Rectangle-14" fill="#D8D8D8" x="54.0665025" y="24.4" width="12.3694581" height="12.4" rx="3.4"></rect>
                        <rect id="Rectangle-14" fill="#D8D8D8" x="4.78817734" y="46.8" width="12.3694581" height="12.4" rx="3.4"></rect>
                        <rect id="Rectangle-14" fill="#D8D8D8" x="20.9482759" y="46.8" width="12.3694581" height="12.4" rx="3.4"></rect>
                        <rect id="Rectangle-14" fill="#D8D8D8" x="37.7068966" y="46.8" width="12.3694581" height="12.4" rx="3.4"></rect>
                        <rect id="Rectangle-14" fill="#D8D8D8" x="54.0665025" y="46.8" width="12.3694581" height="12.4" rx="3.4"></rect>
                        <g id="Rectangle-15">
                            <use fill="#FFFFFF" fill-rule="evenodd" xlink:href="#path-28"></use>
                            <path stroke="#605D5E" stroke-width="0.5" d="M0.25,98.85 L0.25,119 C0.25,119.1933 0.406700338,119.35 0.6,119.35 L71.2226601,119.35 C71.4159598,119.35 71.5726601,119.1933 71.5726601,119 L71.5726601,98.85 L0.25,98.85 Z"></path>
                        </g>
                        <rect id="Rectangle-14" fill="#D8D8D8" x="4.38916256" y="103" width="12.3694581" height="12.4" rx="6.18472906"></rect>
                        <rect id="Rectangle-14" fill="#D8D8D8" x="20.5492611" y="103" width="12.3694581" height="12.4" rx="6.18472906"></rect>
                        <rect id="Rectangle-14" fill="#D8D8D8" x="37.3078818" y="103" width="12.3694581" height="12.4" rx="6.18472906"></rect>
                        <rect id="Rectangle-14" fill="#D8D8D8" x="53.6674877" y="103" width="12.3694581" height="12.4" rx="6.18472906"></rect>
                    </g>
                    <g id="Group-7" transform="translate(9.975369, 27.200000)">
                        <g id="Group-6">
                            <g id="Rectangle-9">
                                <use fill="#F4F4F4" fill-rule="evenodd" xlink:href="#path-29"></use>
                                <rect stroke="#979797" stroke-width="0.5" x="0.25573609" y="0.25" width="59.9450028" height="107.3"></rect>
                            </g>
                            <rect id="Rectangle-14" fill="#D8D8D8" x="3.6767695" y="7.4" width="10.4335807" height="10.4715719" rx="3.4"></rect>
                            <rect id="Rectangle-14" fill="#D8D8D8" x="17.3077378" y="7.4" width="10.4335807" height="10.4715719" rx="3.4"></rect>
                            <rect id="Rectangle-14" fill="#D8D8D8" x="31.4435569" y="7.4" width="10.4335807" height="10.4715719" rx="3.4"></rect>
                            <rect id="Rectangle-14" fill="#D8D8D8" x="45.2428087" y="7.4" width="10.4335807" height="10.4715719" rx="3.4"></rect>
                            <rect id="Rectangle-14" fill="#D8D8D8" x="3.6767695" y="28.0053512" width="10.4335807" height="10.4715719" rx="5.21679035"></rect>
                            <rect id="Rectangle-14" fill="#D8D8D8" x="17.3077378" y="28.0053512" width="10.4335807" height="10.4715719" rx="3.4"></rect>
                            <rect id="Rectangle-14" fill="#D8D8D8" x="31.4435569" y="28.0053512" width="10.4335807" height="10.4715719" rx="5.21679035"></rect>
                            <rect id="Rectangle-14" fill="#D8D8D8" x="45.2428087" y="28.0053512" width="10.4335807" height="10.4715719" rx="3.4"></rect>
                            <rect id="Rectangle-14" fill="#D8D8D8" x="3.6767695" y="46.9217391" width="10.4335807" height="10.4715719" rx="3.4"></rect>
                            <rect id="Rectangle-14" fill="#D8D8D8" x="17.3077378" y="46.9217391" width="10.4335807" height="10.4715719" rx="3.4"></rect>
                            <rect id="Rectangle-14" fill="#D8D8D8" x="31.4435569" y="46.9217391" width="10.4335807" height="10.4715719" rx="3.4"></rect>
                            <rect id="Rectangle-14" fill="#D8D8D8" x="45.2428087" y="46.9217391" width="10.4335807" height="10.4715719" rx="3.4"></rect>
                            <g id="Rectangle-15">
                                <use fill="#FFFFFF" fill-rule="evenodd" xlink:href="#path-30"></use>
                                <rect stroke="#979797" stroke-width="0.5" x="0.25" y="90.9158863" width="59.9507389" height="17.2341137"></rect>
                            </g>
                            <rect id="Rectangle-14" fill="#D8D8D8" x="3.34020239" y="94.3816054" width="10.4335807" height="10.4715719" rx="5.21679035"></rect>
                            <rect id="Rectangle-14" fill="#D8D8D8" x="16.9711707" y="94.3816054" width="10.4335807" height="10.4715719" rx="5.21679035"></rect>
                            <rect id="Rectangle-14" fill="#D8D8D8" x="31.1069897" y="94.3816054" width="10.4335807" height="10.4715719" rx="5.21679035"></rect>
                            <rect id="Rectangle-14" fill="#D8D8D8" x="44.9062416" y="94.3816054" width="10.4335807" height="10.4715719" rx="5.21679035"></rect>
                        </g>
                    </g>
                </g>
            </g>
        </g>
    </g>
</svg>