<?xml version="1.0" encoding="UTF-8" standalone="no"?>
<svg width="375px" height="650px" viewBox="0 0 375 650" version="1.1" xmlns="http://www.w3.org/2000/svg" xmlns:xlink="http://www.w3.org/1999/xlink">
    <!-- Generator: Sketch 49 (51002) - http://www.bohemiancoding.com/sketch -->
    <title>Group 11@2x</title>
    <desc>Created with Sketch.</desc>
    <defs>
        <rect id="path-1" x="0" y="0" width="79.8029557" height="160" rx="5.2"></rect>
        <rect id="path-2" x="1.05466461" y="1.15344828" width="77.5862069" height="157.8" rx="4.6"></rect>
        <rect id="path-3" x="4.58866995" y="16" width="71.8226601" height="128" rx="0.8"></rect>
        <polygon id="path-4" points="0 0 14.9630542 0 14.9630542 15 0 15"></polygon>
        <linearGradient x1="6.36613685%" y1="11.687051%" x2="68.1130226%" y2="64.1337217%" id="linearGradient-6">
            <stop stop-color="#F9EAEA" offset="0%"></stop>
            <stop stop-color="#F3D8D8" offset="100%"></stop>
        </linearGradient>
        <rect id="path-7" x="0" y="0" width="79.7736917" height="159.838547" rx="5.2"></rect>
        <rect id="path-8" x="1.05427786" y="1.15228435" width="77.5577558" height="157.640767" rx="4.6"></rect>
        <rect id="path-9" x="4.58698727" y="15.9838547" width="71.7963225" height="127.870838" rx="0.8"></rect>
        <path d="M4.7864215,122.676085 L76.1838755,122.676085 L76.1838755,143.054894 C76.1838755,143.386265 75.9152464,143.654894 75.5838755,143.654894 L5.3864215,143.654894 C5.05505065,143.654894 4.7864215,143.386265 4.7864215,143.054894 L4.7864215,122.676085 Z" id="path-10"></path>
        <linearGradient x1="50%" y1="0.209263393%" x2="50%" y2="88.0410569%" id="linearGradient-11">
            <stop stop-color="#FBF5F5" offset="0%"></stop>
            <stop stop-color="#F4DADA" offset="100%"></stop>
        </linearGradient>
        <linearGradient x1="7.86993682%" y1="16.0124156%" x2="91.1945247%" y2="89.0791517%" id="linearGradient-12">
            <stop stop-color="#F9EAEA" offset="0%"></stop>
            <stop stop-color="#F4D9D9" offset="100%"></stop>
        </linearGradient>
        <rect id="path-13" x="0" y="0" width="79.787234" height="160" rx="5.2"></rect>
        <rect id="path-14" x="1.05445684" y="1.15344828" width="77.570922" height="157.8" rx="4.6"></rect>
        <rect id="path-15" x="4.58776596" y="16" width="71.8085106" height="128" rx="0.8"></rect>
        <path d="M4.78723404,122.8 L76.1968085,122.8 L76.1968085,143.2 C76.1968085,143.531371 75.9281794,143.8 75.5968085,143.8 L5.38723404,143.8 C5.05586319,143.8 4.78723404,143.531371 4.78723404,143.2 L4.78723404,122.8 Z" id="path-16"></path>
        <linearGradient x1="23.5623031%" y1="0%" x2="86.2408446%" y2="60.6758934%" id="linearGradient-17">
            <stop stop-color="#F8F0F0" offset="0%"></stop>
            <stop stop-color="#F5DCDC" offset="100%"></stop>
        </linearGradient>
        <rect id="path-18" x="0" y="0" width="79.8029557" height="160" rx="5.2"></rect>
        <rect id="path-19" x="1.05466461" y="1.15344828" width="77.5862069" height="157.8" rx="4.6"></rect>
        <rect id="path-20" x="4.58866995" y="16" width="71.8226601" height="128" rx="0.8"></rect>
    </defs>
    <g id="v1s重构版本" stroke="none" stroke-width="1" fill="none" fill-rule="evenodd">
        <g id="基础操作" transform="translate(0.000000, -3146.000000)">
            <g id="Group-11" transform="translate(0.000000, 3146.000000)">
                <rect id="Rectangle-13-Copy-7" fill="#FFFFFF" opacity="0.113864272" x="0" y="0" width="375" height="317"></rect>
                <g id="Group-6" transform="translate(246.000000, 98.000000)">
                    <g id="Group-3">
                        <g id="Group" transform="translate(0.598522, 0.000000)">
                            <g id="Rectangle-2">
                                <use fill="#FFFFFF" fill-rule="evenodd" xlink:href="#path-1"></use>
                                <rect stroke="#231F20" stroke-width="0.5" x="0.25" y="0.25" width="79.3029557" height="159.5" rx="5.2"></rect>
                            </g>
                            <g id="Rectangle-1">
                                <use fill="#FFFFFF" fill-rule="evenodd" xlink:href="#path-2"></use>
                                <rect stroke="#605D5E" stroke-width="0.5" x="1.30466461" y="1.40344828" width="77.0862069" height="157.3" rx="4.6"></rect>
                            </g>
                        </g>
                        <path d="M80.5641406,28.9287798 L80.5641406,52.5399702 C80.6765296,52.4611382 80.75,52.3305943 80.75,52.1828906 L80.75,29.2858594 C80.75,29.1381557 80.6765296,29.0076118 80.5641406,28.9287798 Z M80.5641406,60.2100298 L80.5641406,70.0712202 C80.6765296,69.9923882 80.75,69.8618443 80.75,69.7141406 L80.75,60.5671094 C80.75,60.4194057 80.6765296,60.2888618 80.5641406,60.2100298 Z M0.435859441,54.7100298 C0.323470435,54.7888618 0.25,54.9194057 0.25,55.0671094 L0.25,64.2141406 C0.25,64.3618443 0.323470435,64.4923882 0.435859441,64.5712202 L0.435859441,54.7100298 Z" id="Rectangle-12" stroke="#231F20" stroke-width="0.5"></path>
                        <g id="Rectangle-11">
                            <use fill="#F4F4F4" fill-rule="evenodd" xlink:href="#path-3"></use>
                            <rect stroke="#605D5E" stroke-width="0.5" x="4.83866995" y="16.25" width="71.3226601" height="127.5" rx="0.8"></rect>
                        </g>
                        <g id="Group-2" transform="translate(23.940887, 4.800000)" stroke="#3E3A3B" stroke-width="0.5">
                            <rect id="Rectangle-3" x="8.66349703" y="1.1870844" width="14.5946984" height="1.68670077" rx="0.843350384"></rect>
                            <rect id="Rectangle-4" x="28.1208251" y="1.01214834" width="5.34592368" height="2.12404092" rx="1.06202046"></rect>
                            <ellipse id="Oval-1" cx="1.99507389" cy="2" rx="1.99507389" ry="2"></ellipse>
                        </g>
                    </g>
                    <g id="Page-1" transform="translate(33.118227, 33.600000)">
                        <mask id="mask-5" fill="white">
                            <use xlink:href="#path-4"></use>
                        </mask>
                        <g id="Clip-2"></g>
                        <path d="M7.48129275,0 C7.12742882,0 6.78106399,0.0272513704 6.44126088,0.074706343 C5.89898199,0.149882537 5.37404477,0.282850431 4.8767605,0.46844166 C4.84348323,0.48018794 4.81067465,0.494753328 4.77739738,0.507439311 C4.36307193,0.695379796 4.07295038,1.11213782 4.07295038,1.59843383 C4.07295038,2.26092404 4.60773017,2.79702428 5.26671386,2.79702428 C5.39841686,2.79702428 5.52402683,2.77494127 5.64120032,2.73547377 C5.67775845,2.72090838 5.71150441,2.70728269 5.74899993,2.69412686 C6.14832717,2.54941269 6.56968302,2.45450274 7.00978664,2.41268598 C7.16539303,2.39859045 7.32146811,2.39154268 7.48129275,2.39154268 C10.297206,2.39154268 12.5797455,4.67830854 12.5797455,7.49976507 C12.5797455,10.3226312 10.297206,12.609397 7.48129275,12.609397 C4.66678561,12.609397 2.38471479,10.3226312 2.38471479,7.49976507 C2.38471479,5.79843383 3.21570916,4.29162099 4.49243146,3.36272514 C3.81657479,3.06296006 3.34272521,2.38590446 3.34272521,1.59843383 C3.34272521,1.47345341 3.35584864,1.34894283 3.37834595,1.22960063 C1.34374554,2.56961629 0,4.8770556 0,7.49976507 C0,11.6429131 3.34928693,15 7.48129275,15 C11.6132986,15 14.9630542,11.6429131 14.9630542,7.49976507 C14.9630542,3.35849648 11.6132986,0 7.48129275,0" id="Fill-1" fill="#D8D8D8" mask="url(#mask-5)"></path>
                    </g>
                </g>
                <g id="Group-5" transform="translate(5.000000, 98.000000)">
                    <path d="M12.7052353,66.7325933 C48.1650037,74.8162193 70.7656919,81.476572 80.5072998,86.7136513 C89.0658293,91.3147087 91.5001635,98.6385105 95.7569208,100.362339 C108.167898,105.388323 117.929066,91.3680563 118.987944,94.0757666 C119.920456,96.4603413 123.798578,100.731996 126.131918,115.756109 C127.072933,121.815194 126.920588,134.217933 126.920588,147.752257 C126.920588,150.205328 125.848333,155.255269 127.876619,160.318944 C129.826485,165.186842 138.805535,178.599341 140.703125,183.270721 C141.098958,184.245159 141.098958,185.873564 140.703125,188.155936 C117.805184,194.684684 102.823116,197.964212 95.7569208,197.99452 C83.0702738,198.048934 76.7321476,188.522659 76.4763332,188.354941 C60.9296284,178.162166 53.9782027,170.931531 53.9616388,164.077477 C53.9302907,151.105754 40.5014729,138.896826 13.6751854,127.450694 C11.7299537,127.404987 10.3924999,127.294249 9.66282419,127.118479 C4.05850202,125.76847 3.5961179,123.687387 3.16385272,121.088529 C2.73158753,118.48967 6.55865648,116.392969 6.24717486,116.193448 C0.960888342,112.807298 0.825667896,110.443807 0.756254087,109.061056 C0.419349149,102.349775 9.76731947,101.393995 9.66282419,101.393995 C8.57244867,101.393995 6.16610648,100.232188 5.01007252,99.9871368 C1.09788199,99.1578476 0.0497862442,94.1555437 0.00120918694,92.1718193 C-0.131797807,86.7402589 10.7523207,84.7958324 10.7265592,83.8971231 C10.7231655,83.7787342 13.9575294,83.9822919 13.9539712,83.8971231 C13.9333967,83.4046511 13.8199384,83.1212924 13.8869548,83.1212924 C13.9539712,83.1212924 11.3208491,83.4090491 10.4776743,83.1212924 C2.76119285,80.48783 2.73913168,75.266222 2.73158753,74.3191656 C2.70046071,70.4116543 6.02500998,67.8827969 12.7052353,66.7325933 Z" id="Rectangle-28" fill="url(#linearGradient-6)" transform="translate(70.500000, 132.363673) scale(-1, 1) translate(-70.500000, -132.363673) "></path>
                    <g id="Group-7" transform="translate(51.653465, 0.000000)">
                        <g id="Group-3">
                            <g id="Group" transform="translate(0.598303, 0.000000)">
                                <g id="Rectangle-2">
                                    <use fill="#FFFFFF" fill-rule="evenodd" xlink:href="#path-7"></use>
                                    <rect stroke="#231F20" stroke-width="0.5" x="0.25" y="0.25" width="79.2736917" height="159.338547" rx="5.2"></rect>
                                </g>
                                <g id="Rectangle-1">
                                    <use fill="#FFFFFF" fill-rule="evenodd" xlink:href="#path-8"></use>
                                    <rect stroke="#605D5E" stroke-width="0.5" x="1.30427786" y="1.40228435" width="77.0577558" height="157.140767" rx="4.6"></rect>
                                </g>
                            </g>
                            <path d="M80.5346891,28.8999758 L80.5346891,52.4865656 C80.6469319,52.4077685 80.720297,52.2773485 80.720297,52.1297932 L80.720297,29.2567482 C80.720297,29.1091928 80.6469319,28.9787728 80.5346891,28.8999758 Z M80.5346891,60.1496604 L80.5346891,70.0001251 C80.6469319,69.9213281 80.720297,69.7909081 80.720297,69.6433527 L80.720297,60.5064329 C80.720297,60.3588775 80.6469319,60.2284575 80.5346891,60.1496604 Z M0.435607934,54.6552104 C0.323365174,54.7340075 0.25,54.8644275 0.25,55.0119828 L0.25,64.1489027 C0.25,64.296458 0.323365174,64.426878 0.435607934,64.5056751 L0.435607934,54.6552104 Z" id="Rectangle-12" stroke="#231F20" stroke-width="0.5"></path>
                            <g id="Rectangle-11">
                                <use fill="#F4F4F4" fill-rule="evenodd" xlink:href="#path-9"></use>
                                <rect stroke="#605D5E" stroke-width="0.5" x="4.83698727" y="16.2338547" width="71.2963225" height="127.370838" rx="0.8"></rect>
                            </g>
                            <g id="Group-2" transform="translate(23.932107, 4.795156)" stroke="#3E3A3B" stroke-width="0.5">
                                <rect id="Rectangle-3" x="8.66041178" y="1.1861388" width="14.5891632" height="1.68449421" rx="0.842247104"></rect>
                                <rect id="Rectangle-4" x="28.1106048" y="1.01137927" width="5.34377996" height="2.12139305" rx="1.06069652"></rect>
                                <ellipse id="Oval-1" cx="1.99434229" cy="1.99798184" rx="1.99434229" ry="1.99798184"></ellipse>
                            </g>
                        </g>
                        <rect id="Rectangle-14" fill="#D8D8D8" x="9.37340877" y="24.1755802" width="12.3649222" height="12.3874874" rx="3.4"></rect>
                        <rect id="Rectangle-14" fill="#D8D8D8" x="25.5275813" y="24.1755802" width="12.3649222" height="12.3874874" rx="3.4"></rect>
                        <rect id="Rectangle-14" fill="#D8D8D8" x="42.2800566" y="24.1755802" width="12.3649222" height="12.3874874" rx="3.4"></rect>
                        <rect id="Rectangle-14" fill="#D8D8D8" x="58.6336634" y="24.1755802" width="12.3649222" height="12.3874874" rx="3.4"></rect>
                        <rect id="Rectangle-14" fill="#D8D8D8" x="9.37340877" y="48.5509586" width="12.3649222" height="12.3874874" rx="6.1824611"></rect>
                        <rect id="Rectangle-14" fill="#D8D8D8" x="25.5275813" y="48.5509586" width="12.3649222" height="12.3874874" rx="3.4"></rect>
                        <rect id="Rectangle-14" fill="#D8D8D8" x="42.2800566" y="48.5509586" width="12.3649222" height="12.3874874" rx="6.1824611"></rect>
                        <rect id="Rectangle-14" fill="#D8D8D8" x="58.6336634" y="48.5509586" width="12.3649222" height="12.3874874" rx="3.4"></rect>
                        <rect id="Rectangle-14" fill="#D8D8D8" x="9.37340877" y="70.9283552" width="12.3649222" height="12.3874874" rx="3.4"></rect>
                        <rect id="Rectangle-14" fill="#D8D8D8" x="25.5275813" y="70.9283552" width="12.3649222" height="12.3874874" rx="3.4"></rect>
                        <rect id="Rectangle-14" fill="#D8D8D8" x="42.2800566" y="70.9283552" width="12.3649222" height="12.3874874" rx="3.4"></rect>
                        <rect id="Rectangle-14" fill="#D8D8D8" x="58.6336634" y="70.9283552" width="12.3649222" height="12.3874874" rx="3.4"></rect>
                        <g id="Rectangle-15">
                            <use fill="#FFFFFF" fill-rule="evenodd" xlink:href="#path-10"></use>
                            <path stroke="#979797" stroke-width="0.5" d="M5.0364215,122.926085 L5.0364215,143.054894 C5.0364215,143.248194 5.19312184,143.404894 5.3864215,143.404894 L75.5838755,143.404894 C75.7771752,143.404894 75.9338755,143.248194 75.9338755,143.054894 L75.9338755,122.926085 L5.0364215,122.926085 Z"></path>
                        </g>
                        <rect id="Rectangle-14" fill="#D8D8D8" x="8.97454031" y="127.071645" width="12.3649222" height="12.3874874" rx="6.1824611"></rect>
                        <rect id="Rectangle-14" fill="#D8D8D8" x="25.1287129" y="127.071645" width="12.3649222" height="12.3874874" rx="6.1824611"></rect>
                        <rect id="Rectangle-14" fill="#D8D8D8" x="41.8811881" y="127.071645" width="12.3649222" height="12.3874874" rx="6.1824611"></rect>
                        <rect id="Rectangle-14" fill="#D8D8D8" x="58.2347949" y="127.071645" width="12.3649222" height="12.3874874" rx="6.1824611"></rect>
                    </g>
                    <path d="M18.5961328,53.0509973 C19.7330872,53.0509973 26.2284864,61.1587345 28.8018024,63.3649872 C31.1948742,65.4167062 35.0340447,62.4132005 38.8607049,69.56559 C39.6856854,71.1075566 42.7483876,80.4155631 46.7940475,93.9793509 C47.1515765,95.17803 48.9634516,105.57957 50.6509952,113.539265 C51.0725016,115.527398 52.112613,125.21679 51.7927602,131.913845 C51.5481089,137.036335 48.0216612,139.474543 45.1977172,139.707691 C38.1191647,140.292105 19.9173885,125.507891 17.188558,121.20729 C15.8839757,119.151286 21.3008124,102.302811 21.54082,100.633317 C21.84695,98.5038745 21.3738077,96.5767703 21.54082,95.2387225 C22.0956404,90.7936838 20.8677836,87.0905537 21.00385,85.5339464 C21.1878719,83.4287256 21.2161771,82.3317575 21.0887656,82.2430422 C17.6896127,79.8762459 14.183066,74.1060992 14.183066,72.0988404 C14.183066,61.5849365 13.8595975,55.0435913 15.6264543,53.7901547 C17.3933112,52.5367181 18.0751223,53.0509973 18.5961328,53.0509973 Z" id="Rectangle-27" fill="url(#linearGradient-11)" transform="translate(33.006365, 96.335529) scale(-1, 1) translate(-33.006365, -96.335529) "></path>
                    <g id="Group" transform="translate(42.000000, 51.000000)">
                        <path d="M9.61033663,19.0427649 C4.38635644,19.0427649 0.136612447,14.7852654 0.136612447,9.55215136 C0.136612447,4.31883754 4.38635644,0.0615378406 9.61033663,0.0615378406 C14.833918,0.0615378406 19.0834625,4.31883754 19.0834625,9.55215136 C19.0834625,14.7852654 14.833918,19.0427649 9.61033663,19.0427649 Z M9.61033663,0.361235116 C4.55128854,0.361235116 0.435763791,4.48407064 0.435763791,9.55215136 C0.435763791,14.6200323 4.55128854,18.7430676 9.61033663,18.7430676 C14.6689859,18.7430676 18.7843112,14.6200323 18.7843112,9.55215136 C18.7843112,4.48407064 14.6689859,0.361235116 9.61033663,0.361235116 Z" id="Fill-2" fill="#F2F2F2"></path>
                        <path d="M9.61033663,18.043774 C4.93619661,18.043774 1.13378359,14.2344218 1.13378359,9.55215136 C1.13378359,4.86968113 4.93619661,1.06052876 9.61033663,1.06052876 C14.2840778,1.06052876 18.0862914,4.86968113 18.0862914,9.55215136 C18.0862914,14.2344218 14.2840778,18.043774 9.61033663,18.043774 Z M9.61033663,1.36022603 C5.10112871,1.36022603 1.43293494,5.03491423 1.43293494,9.55215136 C1.43293494,14.0691887 5.10112871,17.7440767 9.61033663,17.7440767 C14.1191457,17.7440767 17.78714,14.0691887 17.78714,9.55215136 C17.78714,5.03491423 14.1191457,1.36022603 9.61033663,1.36022603 Z" id="Fill-3" fill="#E0E0E0"></path>
                        <path d="M9.61033663,16.8230071 C5.60809052,16.8230071 2.35232673,13.5613017 2.35232673,9.55215136 C2.35232673,5.54300101 5.60809052,2.28129566 9.61033663,2.28129566 C13.6119844,2.28129566 16.8677482,5.54300101 16.8677482,9.55215136 C16.8677482,13.5613017 13.6119844,16.8230071 9.61033663,16.8230071 Z M9.61033663,2.58099294 C5.77302263,2.58099294 2.65147808,5.70823411 2.65147808,9.55215136 C2.65147808,13.3960686 5.77302263,16.5233098 9.61033663,16.5233098 C13.4470523,16.5233098 16.5685969,13.3960686 16.5685969,9.55215136 C16.5685969,5.70823411 13.4470523,2.58099294 9.61033663,2.58099294 Z" id="Fill-4" fill="#C6C6C6"></path>
                        <path d="M9.61033663,15.6022402 C6.28018388,15.6022402 3.57086987,12.8881816 3.57086987,9.55215136 C3.57086987,6.21592129 6.28018388,3.50186276 9.61033663,3.50186276 C12.9400905,3.50186276 15.6492051,6.21592129 15.6492051,9.55215136 C15.6492051,12.8881816 12.9400905,15.6022402 9.61033663,15.6022402 Z M9.61033663,3.80156004 C6.44511598,3.80156004 3.87002122,6.38115439 3.87002122,9.55215136 C3.87002122,12.7229485 6.44511598,15.3025429 9.61033663,15.3025429 C12.7751584,15.3025429 15.3500537,12.7229485 15.3500537,9.55215136 C15.3500537,6.38115439 12.7751584,3.80156004 9.61033663,3.80156004 Z" id="Fill-5" fill="#ADADAD"></path>
                    </g>
                    <g id="Group-Copy-2" transform="translate(238.000000, 298.000000)">
                        <path d="M9.61033663,19.0427649 C4.38635644,19.0427649 0.136612447,14.7852654 0.136612447,9.55215136 C0.136612447,4.31883754 4.38635644,0.0615378406 9.61033663,0.0615378406 C14.833918,0.0615378406 19.0834625,4.31883754 19.0834625,9.55215136 C19.0834625,14.7852654 14.833918,19.0427649 9.61033663,19.0427649 Z M9.61033663,0.361235116 C4.55128854,0.361235116 0.435763791,4.48407064 0.435763791,9.55215136 C0.435763791,14.6200323 4.55128854,18.7430676 9.61033663,18.7430676 C14.6689859,18.7430676 18.7843112,14.6200323 18.7843112,9.55215136 C18.7843112,4.48407064 14.6689859,0.361235116 9.61033663,0.361235116 Z" id="Fill-2" fill="#F2F2F2"></path>
                        <path d="M9.61033663,18.043774 C4.93619661,18.043774 1.13378359,14.2344218 1.13378359,9.55215136 C1.13378359,4.86968113 4.93619661,1.06052876 9.61033663,1.06052876 C14.2840778,1.06052876 18.0862914,4.86968113 18.0862914,9.55215136 C18.0862914,14.2344218 14.2840778,18.043774 9.61033663,18.043774 Z M9.61033663,1.36022603 C5.10112871,1.36022603 1.43293494,5.03491423 1.43293494,9.55215136 C1.43293494,14.0691887 5.10112871,17.7440767 9.61033663,17.7440767 C14.1191457,17.7440767 17.78714,14.0691887 17.78714,9.55215136 C17.78714,5.03491423 14.1191457,1.36022603 9.61033663,1.36022603 Z" id="Fill-3" fill="#E0E0E0"></path>
                        <path d="M9.61033663,16.8230071 C5.60809052,16.8230071 2.35232673,13.5613017 2.35232673,9.55215136 C2.35232673,5.54300101 5.60809052,2.28129566 9.61033663,2.28129566 C13.6119844,2.28129566 16.8677482,5.54300101 16.8677482,9.55215136 C16.8677482,13.5613017 13.6119844,16.8230071 9.61033663,16.8230071 Z M9.61033663,2.58099294 C5.77302263,2.58099294 2.65147808,5.70823411 2.65147808,9.55215136 C2.65147808,13.3960686 5.77302263,16.5233098 9.61033663,16.5233098 C13.4470523,16.5233098 16.5685969,13.3960686 16.5685969,9.55215136 C16.5685969,5.70823411 13.4470523,2.58099294 9.61033663,2.58099294 Z" id="Fill-4" fill="#C6C6C6"></path>
                        <path d="M9.61033663,15.6022402 C6.28018388,15.6022402 3.57086987,12.8881816 3.57086987,9.55215136 C3.57086987,6.21592129 6.28018388,3.50186276 9.61033663,3.50186276 C12.9400905,3.50186276 15.6492051,6.21592129 15.6492051,9.55215136 C15.6492051,12.8881816 12.9400905,15.6022402 9.61033663,15.6022402 Z M9.61033663,3.80156004 C6.44511598,3.80156004 3.87002122,6.38115439 3.87002122,9.55215136 C3.87002122,12.7229485 6.44511598,15.3025429 9.61033663,15.3025429 C12.7751584,15.3025429 15.3500537,12.7229485 15.3500537,9.55215136 C15.3500537,6.38115439 12.7751584,3.80156004 9.61033663,3.80156004 Z" id="Fill-5" fill="#ADADAD"></path>
                    </g>
                </g>
                <rect id="Rectangle-13-Copy-8" fill="#FBFBFB" x="0" y="317" width="375" height="337"></rect>
                <text id="小i智能语音" font-family="PingFangSC-Medium, PingFang SC" font-size="15" font-weight="400" letter-spacing="0.964284599" fill="#333333">
                    <tspan x="147.074646" y="41">小i智能语音</tspan>
                </text>
                <text id="进入后台" font-family="PingFangSC-Medium, PingFang SC" font-size="15" font-weight="400" letter-spacing="0.964284599" fill="#333333">
                    <tspan x="156.071431" y="358">进入后台</tspan>
                </text>
                <text id="按住左侧“语音键“说话，说完松手" font-family="PingFangSC-Regular, PingFang SC" font-size="12" font-weight="normal" letter-spacing="0.771427751" fill="#A6A6A6">
                    <tspan x="90.884578" y="64">按住左侧“语音键“说话，说完松手</tspan>
                </text>
                <text id="击“菜单键”进入后台，点击打叉或按住应用" font-family="PingFangSC-Regular, PingFang SC" font-size="12" font-weight="normal" letter-spacing="0.771427751" fill="#A6A6A6">
                    <tspan x="27.0274392" y="381">击“菜单键”进入后台，点击打叉或按住应用左右滑动关闭</tspan>
                    <tspan x="149.185717" y="398">后台所有应用</tspan>
                </text>
                <g id="Group-5" transform="translate(44.000000, 432.000000)">
                    <path d="M89.4274925,81.0148268 C97.362196,80.4237457 102.518035,97.6456427 106.936861,107.593993 C107.625674,109.144756 113.493219,123.273883 120.449726,132.644743 C122.883884,135.92371 126.283525,143.785349 133.076584,152.964345 C137.60529,159.083676 143.172923,174.228894 149.779484,198.4 C126.00177,201.654338 111.720896,203.163875 106.936861,202.92861 C86.0838943,201.903123 82.5924902,187.821561 75.8663788,184.4403 C66.0263517,179.493655 61.7085143,166.653735 58.9565683,163.830549 C51.9257194,156.617692 18.1449494,136.345323 14.0842268,134.922913 C12.5170574,134.373957 10.3762094,132.320482 9.50800068,131.270931 C9.00908056,130.667802 8.71643428,129.066838 8.6474036,127.883385 C8.54938614,126.202986 9.16847194,124.497269 9.50800068,124.435258 C9.84752943,124.373248 7.93384488,124.522004 7.10699975,124.335096 C3.73026327,123.571787 1.211005,121.770953 0.371260002,119.605801 C-0.464075003,117.45202 0.371260002,114.935007 0.371260002,113.751546 C0.371260002,111.643075 15.6315287,112.543948 15.4822175,111.29834 C14.9872078,107.168792 15.4826809,106.084836 14.0842268,105.196229 C13.7866606,105.00715 13.4764449,104.848417 13.1535797,104.72003 C6.22647341,101.965482 7.10699975,97.3127043 7.10699975,96.5223386 C7.10699975,93.4530764 9.37116604,91.9184453 13.8994986,91.9184453 C46.7457424,85.9534252 71.9217404,82.3188857 89.4274925,81.0148268 Z" id="Rectangle-26" fill="url(#linearGradient-12)"></path>
                    <path d="M271.106984,57.8839658 C279.041687,57.2928846 284.197526,74.5147817 288.616352,84.4631324 C289.305165,86.0138954 295.172711,100.143022 302.129218,109.513882 C304.563376,112.792849 307.963016,120.654488 314.756075,129.833484 C319.284781,135.952815 324.852414,151.098033 331.458975,175.269139 C307.681261,178.523477 293.400387,180.033014 288.616352,179.797749 C267.763385,178.772262 264.271981,164.6907 257.54587,161.309439 C247.705843,156.362794 243.388005,143.522874 240.636059,140.699688 C233.605211,133.486831 199.824441,113.214462 195.763718,111.792052 C194.196549,111.243096 192.055701,109.189621 191.187492,108.14007 C190.688572,107.536941 190.395925,105.935977 190.326895,104.752524 C190.228877,103.072125 190.847963,101.366408 191.187492,101.304397 C191.527021,101.242387 189.613336,101.391143 188.786491,101.204235 C185.409754,100.440925 182.890496,98.6400921 182.050751,96.4749403 C181.215416,94.3211591 182.050751,91.8041462 182.050751,90.6206845 C182.050751,88.5122138 197.31102,89.4130868 197.161709,88.1674793 C196.666699,84.0379313 197.162172,82.953975 195.763718,82.0653684 C195.466152,81.8762887 195.155936,81.7175555 194.833071,81.5891689 C187.905965,78.8346207 188.786491,74.1818432 188.786491,73.3914776 C188.786491,70.3222154 191.050657,68.7875843 195.57899,68.7875843 C228.425234,62.8225642 253.601232,59.1880247 271.106984,57.8839658 Z" id="Rectangle-26-Copy" fill="url(#linearGradient-12)" transform="translate(256.569233, 118.845340) rotate(1.000000) translate(-256.569233, -118.845340) "></path>
                    <g id="Group-7" transform="translate(12.765957, 0.000000)">
                        <g id="Group-3">
                            <g id="Group" transform="translate(0.598404, 0.000000)">
                                <g id="Rectangle-2">
                                    <use fill="#FFFFFF" fill-rule="evenodd" xlink:href="#path-13"></use>
                                    <rect stroke="#231F20" stroke-width="0.5" x="0.25" y="0.25" width="79.287234" height="159.5" rx="5.2"></rect>
                                </g>
                                <g id="Rectangle-1">
                                    <use fill="#FFFFFF" fill-rule="evenodd" xlink:href="#path-14"></use>
                                    <rect stroke="#605D5E" stroke-width="0.5" x="1.30445684" y="1.40344828" width="77.070922" height="157.3" rx="4.6"></rect>
                                </g>
                            </g>
                            <path d="M80.5483182,28.9288097 L80.5483182,52.5399403 C80.6606287,52.461127 80.7340426,52.3306497 80.7340426,52.1830257 L80.7340426,29.2857243 C80.7340426,29.1381003 80.6606287,29.007623 80.5483182,28.9288097 Z M80.5483182,60.2100597 L80.5483182,70.0711903 C80.6606287,69.992377 80.7340426,69.8618997 80.7340426,69.7142757 L80.7340426,60.5669743 C80.7340426,60.4193503 80.6606287,60.288873 80.5483182,60.2100597 Z M0.435724323,54.7100597 C0.323413884,54.788873 0.25,54.9193503 0.25,55.0669743 L0.25,64.2142757 C0.25,64.3618997 0.323413884,64.492377 0.435724323,64.5711903 L0.435724323,54.7100597 Z" id="Rectangle-12" stroke="#231F20" stroke-width="0.5"></path>
                            <g id="Rectangle-11">
                                <use fill="#F4F4F4" fill-rule="evenodd" xlink:href="#path-15"></use>
                                <rect stroke="#605D5E" stroke-width="0.5" x="4.83776596" y="16.25" width="71.3085106" height="127.5" rx="0.8"></rect>
                            </g>
                            <rect id="Rectangle-5" stroke="#605D5E" stroke-width="0.5" x="33.4601064" y="148.75" width="14.0638298" height="5.3" rx="2.65"></rect>
                            <g id="Group-2" transform="translate(23.936170, 4.800000)" stroke="#3E3A3B" stroke-width="0.5">
                                <rect id="Rectangle-3" x="8.66183953" y="1.1870844" width="14.5917247" height="1.68670077" rx="0.843350384"></rect>
                                <rect id="Rectangle-4" x="28.1153344" y="1.01214834" width="5.344772" height="2.12404092" rx="1.06202046"></rect>
                                <ellipse id="Oval-1" cx="1.99468085" cy="2" rx="1.99468085" ry="2"></ellipse>
                            </g>
                        </g>
                        <rect id="Rectangle-14" fill="#D8D8D8" x="9.375" y="24.2" width="12.3670213" height="12.4" rx="3.4"></rect>
                        <rect id="Rectangle-14" fill="#D8D8D8" x="25.5319149" y="24.2" width="12.3670213" height="12.4" rx="3.4"></rect>
                        <rect id="Rectangle-14" fill="#D8D8D8" x="42.287234" y="24.2" width="12.3670213" height="12.4" rx="3.4"></rect>
                        <rect id="Rectangle-14" fill="#D8D8D8" x="58.643617" y="24.2" width="12.3670213" height="12.4" rx="3.4"></rect>
                        <rect id="Rectangle-14" fill="#D8D8D8" x="9.375" y="48.6" width="12.3670213" height="12.4" rx="6.18351064"></rect>
                        <rect id="Rectangle-14" fill="#D8D8D8" x="25.5319149" y="48.6" width="12.3670213" height="12.4" rx="3.4"></rect>
                        <rect id="Rectangle-14" fill="#D8D8D8" x="42.287234" y="48.6" width="12.3670213" height="12.4" rx="6.18351064"></rect>
                        <rect id="Rectangle-14" fill="#D8D8D8" x="58.643617" y="48.6" width="12.3670213" height="12.4" rx="3.4"></rect>
                        <rect id="Rectangle-14" fill="#D8D8D8" x="9.375" y="71" width="12.3670213" height="12.4" rx="3.4"></rect>
                        <rect id="Rectangle-14" fill="#D8D8D8" x="25.5319149" y="71" width="12.3670213" height="12.4" rx="3.4"></rect>
                        <rect id="Rectangle-14" fill="#D8D8D8" x="42.287234" y="71" width="12.3670213" height="12.4" rx="3.4"></rect>
                        <rect id="Rectangle-14" fill="#D8D8D8" x="58.643617" y="71" width="12.3670213" height="12.4" rx="3.4"></rect>
                        <g id="Rectangle-15">
                            <use fill="#FFFFFF" fill-rule="evenodd" xlink:href="#path-16"></use>
                            <path stroke="#979797" stroke-width="0.5" d="M5.03723404,123.05 L5.03723404,143.2 C5.03723404,143.3933 5.19393438,143.55 5.38723404,143.55 L75.5968085,143.55 C75.7901082,143.55 75.9468085,143.3933 75.9468085,143.2 L75.9468085,123.05 L5.03723404,123.05 Z"></path>
                        </g>
                        <rect id="Rectangle-14" fill="#D8D8D8" x="8.97606383" y="127.2" width="12.3670213" height="12.4" rx="6.18351064"></rect>
                        <rect id="Rectangle-14" fill="#D8D8D8" x="25.1329787" y="127.2" width="12.3670213" height="12.4" rx="6.18351064"></rect>
                        <rect id="Rectangle-14" fill="#D8D8D8" x="41.8882979" y="127.2" width="12.3670213" height="12.4" rx="6.18351064"></rect>
                        <rect id="Rectangle-14" fill="#D8D8D8" x="58.2446809" y="127.2" width="12.3670213" height="12.4" rx="6.18351064"></rect>
                    </g>
                    <g id="Group-4" transform="translate(29.321809, 149.000000)">
                        <rect id="Rectangle" stroke="#979797" stroke-width="0.5" x="0.848404255" y="0.25" width="4.08776596" height="2.5" rx="0.8"></rect>
                        <rect id="Rectangle-8" fill="#979797" x="0.79787234" y="0" width="1" height="1"></rect>
                        <rect id="Rectangle-6" fill="#FFFFFF" x="0.39893617" y="0.3" width="3.9893617" height="3"></rect>
                        <rect id="Rectangle-7" fill="#FFFFFF" x="4.38829787" y="2" width="1" height="1.8"></rect>
                        <rect id="Rectangle" stroke="#979797" stroke-width="0.5" x="0.25" y="0.85" width="4.08776596" height="2.5" rx="0.8"></rect>
                        <circle id="Oval" fill="#979797" cx="0.828190272" cy="0.15" r="1"></circle>
                        <circle id="Oval" fill="#979797" cx="5.03696809" cy="1.99000244" r="1"></circle>
                    </g>
                    <g id="Group" transform="translate(24.335106, 141.200000)">
                        <path d="M9.61196809,19.062 C4.38710106,19.062 0.136635638,14.8002 0.136635638,9.5618 C0.136635638,4.3232 4.38710106,0.0616 9.61196809,0.0616 C14.8364362,0.0616 19.0867021,4.3232 19.0867021,9.5618 C19.0867021,14.8002 14.8364362,19.062 9.61196809,19.062 Z M9.61196809,0.3616 C4.55206117,0.3616 0.435837766,4.4886 0.435837766,9.5618 C0.435837766,14.6348 4.55206117,18.762 9.61196809,18.762 C14.6714761,18.762 18.7875,14.6348 18.7875,9.5618 C18.7875,4.4886 14.6714761,0.3616 9.61196809,0.3616 Z" id="Fill-2" fill="#F2F2F2"></path>
                        <path d="M9.61196809,18.062 C4.93703457,18.062 1.13397606,14.2488 1.13397606,9.5618 C1.13397606,4.8746 4.93703457,1.0616 9.61196809,1.0616 C14.2865027,1.0616 18.0893617,4.8746 18.0893617,9.5618 C18.0893617,14.2488 14.2865027,18.062 9.61196809,18.062 Z M9.61196809,1.3616 C5.10199468,1.3616 1.43317819,5.04 1.43317819,9.5618 C1.43317819,14.0834 5.10199468,17.762 9.61196809,17.762 C14.1215426,17.762 17.7901596,14.0834 17.7901596,9.5618 C17.7901596,5.04 14.1215426,1.3616 9.61196809,1.3616 Z" id="Fill-3" fill="#E0E0E0"></path>
                        <path d="M9.61196809,16.84 C5.60904255,16.84 2.35272606,13.575 2.35272606,9.5618 C2.35272606,5.5486 5.60904255,2.2836 9.61196809,2.2836 C13.6142952,2.2836 16.8706117,5.5486 16.8706117,9.5618 C16.8706117,13.575 13.6142952,16.84 9.61196809,16.84 Z M9.61196809,2.5836 C5.77400266,2.5836 2.65192819,5.714 2.65192819,9.5618 C2.65192819,13.4096 5.77400266,16.54 9.61196809,16.54 C13.4493351,16.54 16.5714096,13.4096 16.5714096,9.5618 C16.5714096,5.714 13.4493351,2.5836 9.61196809,2.5836 Z" id="Fill-4" fill="#C6C6C6"></path>
                        <path d="M9.61196809,15.618 C6.28125,15.618 3.57147606,12.9012 3.57147606,9.5618 C3.57147606,6.2222 6.28125,3.5054 9.61196809,3.5054 C12.9422872,3.5054 15.6518617,6.2222 15.6518617,9.5618 C15.6518617,12.9012 12.9422872,15.618 9.61196809,15.618 Z M9.61196809,3.8054 C6.44621011,3.8054 3.87067819,6.3876 3.87067819,9.5618 C3.87067819,12.7358 6.44621011,15.318 9.61196809,15.318 C12.7773271,15.318 15.3526596,12.7358 15.3526596,9.5618 C15.3526596,6.3876 12.7773271,3.8054 9.61196809,3.8054 Z" id="Fill-5" fill="#ADADAD"></path>
                    </g>
                    <path d="M32.5353,145.426306 C33.8084075,143.985742 44.9195545,142.397133 47.5878832,142.630114 C51.7235061,142.99121 55.872466,140 58.7454863,140 C62.4640708,140 74.519511,147.249392 94.583262,146.644469 C97.0289444,146.570731 105.245587,148.490297 107.934135,148.407571 C120.039193,148.035102 100.729417,188.426474 89.5658945,188.12415 C82.6626759,187.937201 80.979488,176.671866 79.1381824,174.582195 C74.319214,169.113217 67.4488375,165.198921 58.527053,162.839309 C50.8719141,163.535882 45.8270566,163.535882 43.3924804,162.839309 C36.96437,161.000117 34.5783418,159.582305 33.3445967,158.141148 C31.5824108,156.082711 31.2090029,153.108522 31.0326981,150.62107 C30.8361484,147.847988 31.5494187,146.541863 32.5353,145.426306 Z" id="Rectangle-25" fill="url(#linearGradient-17)"></path>
                </g>
                <g id="Group-3" transform="translate(247.000000, 432.000000)">
                    <g id="Group" transform="translate(0.598522, 0.000000)">
                        <g id="Rectangle-2">
                            <use fill="#FFFFFF" fill-rule="evenodd" xlink:href="#path-18"></use>
                            <rect stroke="#231F20" stroke-width="0.5" x="0.25" y="0.25" width="79.3029557" height="159.5" rx="5.2"></rect>
                        </g>
                        <g id="Rectangle-1">
                            <use fill="#FFFFFF" fill-rule="evenodd" xlink:href="#path-19"></use>
                            <rect stroke="#605D5E" stroke-width="0.5" x="1.30466461" y="1.40344828" width="77.0862069" height="157.3" rx="4.6"></rect>
                        </g>
                    </g>
                    <path d="M80.5641406,28.9287798 L80.5641406,52.5399702 C80.6765296,52.4611382 80.75,52.3305943 80.75,52.1828906 L80.75,29.2858594 C80.75,29.1381557 80.6765296,29.0076118 80.5641406,28.9287798 Z M80.5641406,60.2100298 L80.5641406,70.0712202 C80.6765296,69.9923882 80.75,69.8618443 80.75,69.7141406 L80.75,60.5671094 C80.75,60.4194057 80.6765296,60.2888618 80.5641406,60.2100298 Z M0.435859441,54.7100298 C0.323470435,54.7888618 0.25,54.9194057 0.25,55.0671094 L0.25,64.2141406 C0.25,64.3618443 0.323470435,64.4923882 0.435859441,64.5712202 L0.435859441,54.7100298 Z" id="Rectangle-12" stroke="#231F20" stroke-width="0.5"></path>
                    <g id="Rectangle-11">
                        <use fill="#D8D7D7" fill-rule="evenodd" xlink:href="#path-20"></use>
                        <rect stroke="#605D5E" stroke-width="0.5" x="4.83866995" y="16.25" width="71.3226601" height="127.5" rx="0.8"></rect>
                    </g>
                    <g id="Group-2" transform="translate(23.940887, 4.800000)" stroke="#3E3A3B" stroke-width="0.5">
                        <rect id="Rectangle-3" x="8.66349703" y="1.1870844" width="14.5946984" height="1.68670077" rx="0.843350384"></rect>
                        <rect id="Rectangle-4" x="28.1208251" y="1.01214834" width="5.34592368" height="2.12404092" rx="1.06202046"></rect>
                        <ellipse id="Oval-1" cx="1.99507389" cy="2" rx="1.99507389" ry="2"></ellipse>
                    </g>
                </g>
                <g id="Group-8" transform="translate(257.000000, 473.000000)">
                    <rect id="Rectangle-22" fill="#FFFFFF" x="0" y="0" width="62" height="61"></rect>
                    <g id="模态对话框/有图" opacity="0.645289179" fill="#EBEBEB">
                        <rect id="Rectangle-" x="0" y="0" width="62" height="9"></rect>
                    </g>
                    <rect id="Rectangle-24" fill="#F8F8F8" x="3" y="13" width="47" height="5"></rect>
                    <rect id="Rectangle-24-Copy" fill="#F8F8F8" x="3" y="25" width="34" height="5"></rect>
                </g>
                <g id="Group-8" transform="translate(255.000000, 486.000000)">
                    <rect id="Rectangle-22" fill="#FFFFFF" x="0" y="0" width="65" height="64.4"></rect>
                    <g id="模态对话框/有图" opacity="0.645289179" fill="#EBEBEB">
                        <rect id="Rectangle-" x="0" y="0" width="65" height="9"></rect>
                    </g>
                    <rect id="Rectangle-24" fill="#F8F8F8" x="3" y="14" width="27" height="5"></rect>
                    <rect id="Rectangle-24-Copy-2" fill="#F8F8F8" x="35" y="14" width="27" height="5"></rect>
                    <rect id="Rectangle-24-Copy" fill="#F8F8F8" x="3" y="26" width="36" height="5"></rect>
                </g>
                <g id="Group-8-Copy" transform="translate(253.000000, 511.000000)">
                    <rect id="Rectangle-22" fill="#FFFFFF" x="0" y="0" width="69" height="64"></rect>
                    <g id="模态对话框/有图" opacity="0.645289179" fill="#EBEBEB">
                        <rect id="Rectangle-" x="0" y="0" width="69" height="9"></rect>
                    </g>
                    <rect id="Rectangle-24" fill="#F8F8F8" x="3" y="14" width="52" height="5"></rect>
                    <rect id="Rectangle-24-Copy" fill="#F8F8F8" x="3" y="26" width="39" height="5"></rect>
                </g>
                <g id="Group" transform="translate(309.000000, 508.000000)">
                    <path d="M9.61033663,19.0427649 C4.38635644,19.0427649 0.136612447,14.7852654 0.136612447,9.55215136 C0.136612447,4.31883754 4.38635644,0.0615378406 9.61033663,0.0615378406 C14.833918,0.0615378406 19.0834625,4.31883754 19.0834625,9.55215136 C19.0834625,14.7852654 14.833918,19.0427649 9.61033663,19.0427649 Z M9.61033663,0.361235116 C4.55128854,0.361235116 0.435763791,4.48407064 0.435763791,9.55215136 C0.435763791,14.6200323 4.55128854,18.7430676 9.61033663,18.7430676 C14.6689859,18.7430676 18.7843112,14.6200323 18.7843112,9.55215136 C18.7843112,4.48407064 14.6689859,0.361235116 9.61033663,0.361235116 Z" id="Fill-2" fill="#F2F2F2"></path>
                    <path d="M9.61033663,18.043774 C4.93619661,18.043774 1.13378359,14.2344218 1.13378359,9.55215136 C1.13378359,4.86968113 4.93619661,1.06052876 9.61033663,1.06052876 C14.2840778,1.06052876 18.0862914,4.86968113 18.0862914,9.55215136 C18.0862914,14.2344218 14.2840778,18.043774 9.61033663,18.043774 Z M9.61033663,1.36022603 C5.10112871,1.36022603 1.43293494,5.03491423 1.43293494,9.55215136 C1.43293494,14.0691887 5.10112871,17.7440767 9.61033663,17.7440767 C14.1191457,17.7440767 17.78714,14.0691887 17.78714,9.55215136 C17.78714,5.03491423 14.1191457,1.36022603 9.61033663,1.36022603 Z" id="Fill-3" fill="#E0E0E0"></path>
                    <path d="M9.61033663,16.8230071 C5.60809052,16.8230071 2.35232673,13.5613017 2.35232673,9.55215136 C2.35232673,5.54300101 5.60809052,2.28129566 9.61033663,2.28129566 C13.6119844,2.28129566 16.8677482,5.54300101 16.8677482,9.55215136 C16.8677482,13.5613017 13.6119844,16.8230071 9.61033663,16.8230071 Z M9.61033663,2.58099294 C5.77302263,2.58099294 2.65147808,5.70823411 2.65147808,9.55215136 C2.65147808,13.3960686 5.77302263,16.5233098 9.61033663,16.5233098 C13.4470523,16.5233098 16.5685969,13.3960686 16.5685969,9.55215136 C16.5685969,5.70823411 13.4470523,2.58099294 9.61033663,2.58099294 Z" id="Fill-4" fill="#C6C6C6"></path>
                    <path d="M9.61033663,15.6022402 C6.28018388,15.6022402 3.57086987,12.8881816 3.57086987,9.55215136 C3.57086987,6.21592129 6.28018388,3.50186276 9.61033663,3.50186276 C12.9400905,3.50186276 15.6492051,6.21592129 15.6492051,9.55215136 C15.6492051,12.8881816 12.9400905,15.6022402 9.61033663,15.6022402 Z M9.61033663,3.80156004 C6.44511598,3.80156004 3.87002122,6.38115439 3.87002122,9.55215136 C3.87002122,12.7229485 6.44511598,15.3025429 9.61033663,15.3025429 C12.7751584,15.3025429 15.3500537,12.7229485 15.3500537,9.55215136 C15.3500537,6.38115439 12.7751584,3.80156004 9.61033663,3.80156004 Z" id="Fill-5" fill="#ADADAD"></path>
                </g>
                <path d="M316.2,477.2 L316.2,476 L316.8,476 L316.8,477.2 L318,477.2 L318,477.8 L316.8,477.8 L316.8,479 L316.2,479 L316.2,477.8 L315,477.8 L315,477.2 L316.2,477.2 Z" id="Combined-Shape" fill="#CBCBCB" opacity="0.61771222" transform="translate(316.500000, 477.500000) rotate(-315.000000) translate(-316.500000, -477.500000) "></path>
                <path d="M317.2,490.2 L317.2,489 L317.8,489 L317.8,490.2 L319,490.2 L319,490.8 L317.8,490.8 L317.8,492 L317.2,492 L317.2,490.8 L316,490.8 L316,490.2 L317.2,490.2 Z" id="Combined-Shape-Copy" fill="#CBCBCB" opacity="0.713327892" transform="translate(317.500000, 490.500000) rotate(-315.000000) translate(-317.500000, -490.500000) "></path>
                <path d="M318.2,515.2 L318.2,514 L318.8,514 L318.8,515.2 L320,515.2 L320,515.8 L318.8,515.8 L318.8,517 L318.2,517 L318.2,515.8 L317,515.8 L317,515.2 L318.2,515.2 Z" id="Combined-Shape-Copy-2" fill="#CBCBCB" transform="translate(318.500000, 515.500000) rotate(-315.000000) translate(-318.500000, -515.500000) "></path>
                <path d="M298.539394,540.62285 C299.815897,539.395586 310.956673,538.042197 313.632118,538.240681 C317.778769,538.548311 321.938793,536 324.819474,536 C328.547975,536 340.635563,542.175998 360.752817,541.660643 C363.205022,541.597824 371.443576,543.233166 374.139293,543.162689 C386.276631,542.84537 366.915362,577.256121 355.72207,576.998561 C348.800443,576.839293 347.112767,567.24198 345.266551,565.46172 C340.434732,560.802516 333.546034,557.467798 324.600458,555.457565 C316.924906,556.050999 311.866595,556.050999 309.425527,555.457565 C302.980275,553.890697 300.587884,552.682816 299.350849,551.455046 C297.583964,549.701395 297.20956,547.167585 297.032785,545.048442 C296.835712,542.685962 297.550884,541.57323 298.539394,540.62285 Z" id="Path" fill="#F4DADA" transform="translate(337.500000, 556.500000) rotate(60.000000) translate(-337.500000, -556.500000) "></path>
                <path d="M279.895521,534.469104 C279.055028,534.842242 278.741922,534.366217 279.234562,533.388869 L284.607552,522.728576 C285.094233,521.763073 285.89891,521.751228 286.391428,522.728576 L291.764419,533.388869 C292.2511,534.354372 291.961035,534.84987 291.10346,534.469104 L288.192021,533.176847 L286.014331,550.319818 C285.729981,552.558412 285.269336,552.561709 284.984527,550.319818 L282.806837,533.176847 L279.895521,534.469104 Z" id="箭头" fill="#E3E3E3" transform="translate(285.500000, 537.000000) scale(-1, -1) rotate(-270.000000) translate(-285.500000, -537.000000) "></path>
                <path d="M280.895521,551.469104 C280.055028,551.842242 279.741922,551.366217 280.234562,550.388869 L285.607552,539.728576 C286.094233,538.763073 286.89891,538.751228 287.391428,539.728576 L292.764419,550.388869 C293.2511,551.354372 292.961035,551.84987 292.10346,551.469104 L289.192021,550.176847 L287.014331,567.319818 C286.729981,569.558412 286.269336,569.561709 285.984527,567.319818 L283.806837,550.176847 L280.895521,551.469104 Z" id="箭头" fill="#E3E3E3" transform="translate(286.500000, 554.000000) scale(-1, -1) rotate(-90.000000) translate(-286.500000, -554.000000) "></path>
            </g>
        </g>
    </g>
</svg>