<?xml version="1.0" encoding="UTF-8"?>
<svg width="49px" height="49px" viewBox="0 0 49 49" version="1.1" xmlns="http://www.w3.org/2000/svg" xmlns:xlink="http://www.w3.org/1999/xlink">
    <!-- Generator: Sketch 49.2 (51160) - http://www.bohemiancoding.com/sketch -->
    <title>bot</title>
    <desc>Created with Sketch.</desc>
    <defs>
        <circle id="path-1" cx="20.5" cy="20.5" r="20.5"></circle>
        <filter x="-25.6%" y="-13.4%" width="151.2%" height="151.2%" filterUnits="objectBoundingBox" id="filter-2">
            <feOffset dx="0" dy="3" in="SourceAlpha" result="shadowOffsetOuter1"></feOffset>
            <feGaussianBlur stdDeviation="2" in="shadowOffsetOuter1" result="shadowBlurOuter1"></feGaussianBlur>
            <feColorMatrix values="0 0 0 0 0   0 0 0 0 0   0 0 0 0 0  0 0 0 0.0615942029 0" type="matrix" in="shadowBlurOuter1" result="shadowMatrixOuter1"></feColorMatrix>
            <feOffset dx="0" dy="2" in="SourceAlpha" result="shadowOffsetOuter2"></feOffset>
            <feGaussianBlur stdDeviation="1.5" in="shadowOffsetOuter2" result="shadowBlurOuter2"></feGaussianBlur>
            <feColorMatrix values="0 0 0 0 0   0 0 0 0 0   0 0 0 0 0  0 0 0 0.124122509 0" type="matrix" in="shadowBlurOuter2" result="shadowMatrixOuter2"></feColorMatrix>
            <feMerge>
                <feMergeNode in="shadowMatrixOuter1"></feMergeNode>
                <feMergeNode in="shadowMatrixOuter2"></feMergeNode>
            </feMerge>
        </filter>
        <linearGradient x1="50%" y1="0%" x2="50%" y2="100%" id="linearGradient-3">
            <stop stop-color="#585858" offset="0%"></stop>
            <stop stop-color="#373737" offset="100%"></stop>
        </linearGradient>
        <circle id="path-4" cx="20.5" cy="20.5" r="20.5"></circle>
        <filter x="-4.9%" y="-4.9%" width="109.8%" height="109.8%" filterUnits="objectBoundingBox" id="filter-5">
            <feOffset dx="0" dy="1" in="SourceAlpha" result="shadowOffsetInner1"></feOffset>
            <feComposite in="shadowOffsetInner1" in2="SourceAlpha" operator="arithmetic" k2="-1" k3="1" result="shadowInnerInner1"></feComposite>
            <feColorMatrix values="0 0 0 0 1   0 0 0 0 1   0 0 0 0 1  0 0 0 0.1 0" type="matrix" in="shadowInnerInner1" result="shadowMatrixInner1"></feColorMatrix>
            <feGaussianBlur stdDeviation="1.5" in="SourceAlpha" result="shadowBlurInner2"></feGaussianBlur>
            <feOffset dx="0" dy="1" in="shadowBlurInner2" result="shadowOffsetInner2"></feOffset>
            <feComposite in="shadowOffsetInner2" in2="SourceAlpha" operator="arithmetic" k2="-1" k3="1" result="shadowInnerInner2"></feComposite>
            <feColorMatrix values="0 0 0 0 0   0 0 0 0 0   0 0 0 0 0  0 0 0 0.0228147645 0" type="matrix" in="shadowInnerInner2" result="shadowMatrixInner2"></feColorMatrix>
            <feMerge>
                <feMergeNode in="shadowMatrixInner1"></feMergeNode>
                <feMergeNode in="shadowMatrixInner2"></feMergeNode>
            </feMerge>
        </filter>
        <linearGradient x1="108.284524%" y1="76.8459342%" x2="32.0142314%" y2="-6.59751117%" id="linearGradient-6">
            <stop stop-color="#4492D9" offset="0%"></stop>
            <stop stop-color="#CAE2FF" offset="100%"></stop>
        </linearGradient>
        <path d="M17,20.4992951 C17.8766721,19.4610334 18.6768113,18.7223324 19.40023,18.283336 C20.1235415,17.8444838 20.7393691,17.625 21.247981,17.625 C21.6135224,17.6447959 22.1485295,17.5845726 22.116078,18.3612229 C22.116078,18.6350806 21.8314644,19.7961229 21.2624247,21.8443499 C20.3344894,25.1954465 19.8705486,27.2155501 19.8705486,27.9045164 C19.8705486,28.0367772 19.9012314,28.1476285 19.9626776,28.2372431 C20.0240165,28.3270594 20.0898573,28.3717515 20.1602001,28.3717515 C20.4411425,28.3717515 22.8333333,27.1540877 22.8333333,27.1540877 C21.630485,28.3717515 20.752875,29.1505342 20.1996457,29.4903493 C19.6466575,29.8301645 19.1944539,30 18.8434635,30 C18.5361258,30 18.2924315,29.896122 18.1127024,29.6885676 C17.9326784,29.4810133 17.8427468,29.1929786 17.8427468,28.8247807 C17.8427468,27.644951 18.5011821,24.7612047 19.817892,20.1736569 C19.8791237,19.9566512 20.1170565,19.2267099 19.673026,19.30987 C19.4972629,19.30987 17,20.4992951 17,20.4992951 Z M22.5296149,12 C22.9573532,12 23.3094742,12.125576 23.5859126,12.3760067 C23.8619274,12.6268125 24,12.947822 24,13.3390352 C24,13.8772635 23.7894051,14.3510014 23.3684108,14.7604796 C22.9470255,15.1703042 22.4742295,15.375 21.9496644,15.375 C21.5354141,15.375 21.1902652,15.2466251 20.9142503,14.9897309 C20.637812,14.732981 20.5,14.3967651 20.5,13.9809387 C20.5,13.430678 20.6999414,12.9629131 21.1005408,12.5777882 C21.5009122,12.1926345 21.977292,12 22.5296149,12 Z" id="path-7"></path>
        <filter x="-28.6%" y="0.0%" width="157.1%" height="127.8%" filterUnits="objectBoundingBox" id="filter-8">
            <feGaussianBlur stdDeviation="0" in="SourceGraphic"></feGaussianBlur>
        </filter>
        <filter x="-64.3%" y="-13.9%" width="228.6%" height="155.6%" filterUnits="objectBoundingBox" id="filter-9">
            <feOffset dx="0" dy="3" in="SourceAlpha" result="shadowOffsetOuter1"></feOffset>
            <feGaussianBlur stdDeviation="1" in="shadowOffsetOuter1" result="shadowBlurOuter1"></feGaussianBlur>
            <feColorMatrix values="0 0 0 0 0   0 0 0 0 0   0 0 0 0 0  0 0 0 0.500056612 0" type="matrix" in="shadowBlurOuter1"></feColorMatrix>
        </filter>
    </defs>
    <g id="v1s重构版本" stroke="none" stroke-width="1" fill="none" fill-rule="evenodd">
        <g id="小i智能语音" transform="translate(-163.000000, -102.000000)">
            <g id="bot" transform="translate(167.000000, 103.000000)">
                <g id="Oval-3" fill="black" fill-opacity="1">
                    <use filter="url(#filter-2)" xlink:href="#path-1"></use>
                </g>
                <g id="Oval-3">
                    <use fill="url(#linearGradient-3)" fill-rule="evenodd" xlink:href="#path-4"></use>
                    <use fill="black" fill-opacity="1" filter="url(#filter-5)" xlink:href="#path-4"></use>
                </g>
                <g id="i" filter="url(#filter-8)">
                    <use fill="black" fill-opacity="1" filter="url(#filter-9)" xlink:href="#path-7"></use>
                    <use fill="url(#linearGradient-6)" fill-rule="evenodd" xlink:href="#path-7"></use>
                </g>
            </g>
        </g>
    </g>
</svg>