<?xml version="1.0" encoding="UTF-8" standalone="no"?>
<svg width="375px" height="951px" viewBox="0 0 375 951" version="1.1" xmlns="http://www.w3.org/2000/svg" xmlns:xlink="http://www.w3.org/1999/xlink" style="background: #FFFFFF;">
    <!-- Generator: Sketch 49 (51002) - http://www.bohemiancoding.com/sketch -->
    <title>Group 9@2x</title>
    <desc>Created with Sketch.</desc>
    <defs>
        <rect id="path-1" x="0" y="0" width="79.8029557" height="160" rx="5.2"></rect>
        <rect id="path-2" x="1.05466461" y="1.15344828" width="77.5862069" height="157.8" rx="4.6"></rect>
        <rect id="path-3" x="4.58866995" y="16" width="71.8226601" height="128" rx="0.8"></rect>
        <path d="M4.78817734,122.8 L76.2118227,122.8 L76.2118227,143.2 C76.2118227,143.531371 75.9431935,143.8 75.6118227,143.8 L5.38817734,143.8 C5.05680649,143.8 4.78817734,143.531371 4.78817734,143.2 L4.78817734,122.8 Z" id="path-4"></path>
        <linearGradient x1="7.86993682%" y1="16.0124156%" x2="91.1945247%" y2="89.0791517%" id="linearGradient-5">
            <stop stop-color="#F9EAEA" offset="0%"></stop>
            <stop stop-color="#F4D9D9" offset="100%"></stop>
        </linearGradient>
        <rect id="path-6" x="0" y="0" width="79.8934754" height="160.16178" rx="5.2"></rect>
        <rect id="path-7" x="1.05586091" y="1.15461455" width="77.6742122" height="157.959555" rx="4.6"></rect>
        <rect id="path-8" x="4.59387483" y="16.016178" width="71.9041278" height="128.129424" rx="0.8"></rect>
        <linearGradient x1="23.5623031%" y1="0%" x2="86.2408446%" y2="60.6758934%" id="linearGradient-9">
            <stop stop-color="#F8F0F0" offset="0%"></stop>
            <stop stop-color="#F5DCDC" offset="100%"></stop>
        </linearGradient>
        <linearGradient x1="6.36613685%" y1="11.687051%" x2="68.1130226%" y2="64.1337217%" id="linearGradient-10">
            <stop stop-color="#F9EAEA" offset="0%"></stop>
            <stop stop-color="#F3D8D8" offset="100%"></stop>
        </linearGradient>
        <rect id="path-11" x="0" y="0" width="80.3394625" height="160" rx="5.2"></rect>
        <rect id="path-12" x="1.06175501" y="1.15344828" width="78.1078108" height="157.8" rx="4.6"></rect>
        <rect id="path-13" x="0" y="0" width="64.874116" height="42.2797342"></rect>
        <rect id="path-14" x="0" y="0" width="64.874116" height="42.2797342"></rect>
        <polygon id="path-15" points="0 0 64.874116 0 64.874116 30.7181804 0 30.7181804"></polygon>
        <linearGradient x1="50%" y1="0.209263393%" x2="50%" y2="88.0410569%" id="linearGradient-16">
            <stop stop-color="#FBF5F5" offset="0%"></stop>
            <stop stop-color="#F4DADA" offset="100%"></stop>
        </linearGradient>
        <rect id="path-17" x="0" y="0" width="79.8029557" height="160" rx="5.46"></rect>
        <rect id="path-18" x="1.05466461" y="1.15344828" width="77.5862069" height="157.8" rx="4.83"></rect>
        <rect id="path-19" x="4.58866995" y="16" width="71.8226601" height="128" rx="0.84"></rect>
        <polygon id="path-20" points="0 0.14542 33.7281406 0.14542 33.7281406 8.2 0 8.2"></polygon>
        <rect id="path-22" x="0" y="0" width="79.8934754" height="159.626604" rx="5.2"></rect>
        <rect id="path-23" x="1.05586091" y="1.15075645" width="77.6742122" height="157.431739" rx="4.6"></rect>
        <rect id="path-24" x="4.59387483" y="15.9626604" width="71.9041278" height="127.701284" rx="0.8"></rect>
        <rect id="path-25" x="0" y="0" width="79.8029557" height="160" rx="5.2"></rect>
        <rect id="path-26" x="1.05466461" y="1.15344828" width="77.5862069" height="157.8" rx="4.6"></rect>
        <rect id="path-27" x="4.58866995" y="16" width="71.8226601" height="128" rx="0.8"></rect>
        <path d="M4.78817734,122.8 L76.2118227,122.8 L76.2118227,143.2 C76.2118227,143.531371 75.9431935,143.8 75.6118227,143.8 L5.38817734,143.8 C5.05680649,143.8 4.78817734,143.531371 4.78817734,143.2 L4.78817734,122.8 Z" id="path-28"></path>
    </defs>
    <g id="v1s重构版本" stroke="none" stroke-width="1" fill="none" fill-rule="evenodd">
        <g id="基础操作" transform="translate(0.000000, -1244.000000)">
            <g id="Group-9" transform="translate(0.000000, 1244.000000)">
                <rect id="Rectangle-13-Copy" fill="#FFFFFF" opacity="0.113864272" x="23" y="0" width="375" height="317"></rect>
                <rect id="Rectangle-13-Copy-3" fill="#FFFFFF" opacity="0.113864272" x="0" y="634" width="375" height="317"></rect>
                <g id="Group-7" transform="translate(248.000000, 732.000000)">
                    <g id="Group-3">
                        <g id="Group" transform="translate(0.598522, 0.000000)">
                            <g id="Rectangle-2">
                                <use fill="#FFFFFF" fill-rule="evenodd" xlink:href="#path-1"></use>
                                <rect stroke="#231F20" stroke-width="0.5" x="0.25" y="0.25" width="79.3029557" height="159.5" rx="5.2"></rect>
                            </g>
                            <g id="Rectangle-1">
                                <use fill="#FFFFFF" fill-rule="evenodd" xlink:href="#path-2"></use>
                                <rect stroke="#605D5E" stroke-width="0.5" x="1.30466461" y="1.40344828" width="77.0862069" height="157.3" rx="4.6"></rect>
                            </g>
                        </g>
                        <path d="M80.5641406,28.9287798 L80.5641406,52.5399702 C80.6765296,52.4611382 80.75,52.3305943 80.75,52.1828906 L80.75,29.2858594 C80.75,29.1381557 80.6765296,29.0076118 80.5641406,28.9287798 Z M80.5641406,60.2100298 L80.5641406,70.0712202 C80.6765296,69.9923882 80.75,69.8618443 80.75,69.7141406 L80.75,60.5671094 C80.75,60.4194057 80.6765296,60.2888618 80.5641406,60.2100298 Z M0.435859441,54.7100298 C0.323470435,54.7888618 0.25,54.9194057 0.25,55.0671094 L0.25,64.2141406 C0.25,64.3618443 0.323470435,64.4923882 0.435859441,64.5712202 L0.435859441,54.7100298 Z" id="Rectangle-12" stroke="#231F20" stroke-width="0.5"></path>
                        <g id="Rectangle-11">
                            <use fill="#F4F4F4" fill-rule="evenodd" xlink:href="#path-3"></use>
                            <rect stroke="#605D5E" stroke-width="0.5" x="4.83866995" y="16.25" width="71.3226601" height="127.5" rx="0.8"></rect>
                        </g>
                        <g id="Group-2" transform="translate(23.940887, 4.800000)" stroke="#3E3A3B" stroke-width="0.5">
                            <rect id="Rectangle-3" x="8.66349703" y="1.1870844" width="14.5946984" height="1.68670077" rx="0.843350384"></rect>
                            <rect id="Rectangle-4" x="28.1208251" y="1.01214834" width="5.34592368" height="2.12404092" rx="1.06202046"></rect>
                            <ellipse id="Oval-1" cx="1.99507389" cy="2" rx="1.99507389" ry="2"></ellipse>
                        </g>
                    </g>
                    <rect id="Rectangle-14" fill="#D8D8D8" x="9.37684729" y="24.2" width="12.3694581" height="12.4" rx="3.4"></rect>
                    <rect id="Rectangle-14" fill="#D8D8D8" x="25.5369458" y="24.2" width="12.3694581" height="12.4" rx="3.4"></rect>
                    <rect id="Rectangle-14" fill="#D8D8D8" x="42.2955665" y="24.2" width="12.3694581" height="12.4" rx="3.4"></rect>
                    <rect id="Rectangle-14" fill="#D8D8D8" x="58.6551724" y="24.2" width="12.3694581" height="12.4" rx="3.4"></rect>
                    <rect id="Rectangle-14" fill="#D8D8D8" x="9.37684729" y="48.6" width="12.3694581" height="12.4" rx="6.18472906"></rect>
                    <rect id="Rectangle-14" fill="#D8D8D8" x="25.5369458" y="48.6" width="12.3694581" height="12.4" rx="3.4"></rect>
                    <rect id="Rectangle-14" fill="#D8D8D8" x="42.2955665" y="48.6" width="12.3694581" height="12.4" rx="6.18472906"></rect>
                    <rect id="Rectangle-14" fill="#D8D8D8" x="58.6551724" y="48.6" width="12.3694581" height="12.4" rx="3.4"></rect>
                    <rect id="Rectangle-14" fill="#D8D8D8" x="9.37684729" y="71" width="12.3694581" height="12.4" rx="3.4"></rect>
                    <rect id="Rectangle-14" fill="#D8D8D8" x="25.5369458" y="71" width="12.3694581" height="12.4" rx="3.4"></rect>
                    <rect id="Rectangle-14" fill="#D8D8D8" x="42.2955665" y="71" width="12.3694581" height="12.4" rx="3.4"></rect>
                    <rect id="Rectangle-14" fill="#D8D8D8" x="58.6551724" y="71" width="12.3694581" height="12.4" rx="3.4"></rect>
                    <g id="Rectangle-15">
                        <use fill="#FFFFFF" fill-rule="evenodd" xlink:href="#path-4"></use>
                        <path stroke="#979797" stroke-width="0.5" d="M5.03817734,123.05 L5.03817734,143.2 C5.03817734,143.3933 5.19487768,143.55 5.38817734,143.55 L75.6118227,143.55 C75.8051223,143.55 75.9618227,143.3933 75.9618227,143.2 L75.9618227,123.05 L5.03817734,123.05 Z"></path>
                    </g>
                    <rect id="Rectangle-14" fill="#D8D8D8" x="8.97783251" y="127.2" width="12.3694581" height="12.4" rx="6.18472906"></rect>
                    <rect id="Rectangle-14" fill="#D8D8D8" x="25.137931" y="127.2" width="12.3694581" height="12.4" rx="6.18472906"></rect>
                    <rect id="Rectangle-14" fill="#D8D8D8" x="41.8965517" y="127.2" width="12.3694581" height="12.4" rx="6.18472906"></rect>
                    <rect id="Rectangle-14" fill="#D8D8D8" x="58.2561576" y="127.2" width="12.3694581" height="12.4" rx="6.18472906"></rect>
                </g>
                <g id="Group-6" transform="translate(47.000000, 732.000000)">
                    <path d="M89.5465704,80.0957316 C97.4918394,79.5040528 102.654543,96.7433633 107.079254,106.701773 C107.768984,108.254104 113.644342,122.397517 120.610112,131.777852 C123.047511,135.060134 126.451679,142.929723 133.253783,152.118 C137.788519,158.243518 143.363566,173.40405 149.978924,197.599596 C125.414854,197.963103 110.737617,198.027106 105.947212,197.791603 C85.0664786,196.765079 82.7024669,187.01046 75.9673993,183.625781 C66.1142697,178.674134 61.7906828,165.821231 59.0350724,162.995191 C51.9948615,155.775041 18.1691105,135.482174 14.1029807,134.058325 C12.5337246,133.508814 10.3900259,131.453263 9.52066114,130.402651 C9.02107667,129.798912 8.72804072,128.196329 8.65891812,127.011679 C8.56077014,125.329581 9.18068029,123.62214 9.52066114,123.560067 C9.86064198,123.497993 7.94440925,123.6469 7.11646313,123.459803 C3.73523033,122.695722 1.21261752,120.893067 0.371754356,118.725726 C-0.464692945,116.569767 0.371754356,114.050209 0.371754356,112.865551 C0.371754356,110.754948 15.652343,111.656732 15.502833,110.409865 C15.0071642,106.276142 15.503297,105.19109 14.1029807,104.301585 C13.8050183,104.112314 13.4943896,103.95342 13.1710944,103.824904 C6.23476432,101.06757 7.11646313,96.4100882 7.11646313,95.6189234 C7.11646313,92.5465578 9.38364429,91.010375 13.9180066,91.010375 C46.8079871,85.0393235 72.0175084,81.4011091 89.5465704,80.0957316 Z" id="Rectangle-26" fill="url(#linearGradient-5)"></path>
                    <g id="Group-3" transform="translate(13.182423, 0.000000)">
                        <g id="Group" transform="translate(0.599201, 0.000000)">
                            <g id="Rectangle-2">
                                <use fill="#FFFFFF" fill-rule="evenodd" xlink:href="#path-6"></use>
                                <rect stroke="#231F20" stroke-width="0.5" x="0.25" y="0.25" width="79.3934754" height="159.66178" rx="5.2"></rect>
                            </g>
                            <g id="Rectangle-1">
                                <use fill="#FFFFFF" fill-rule="evenodd" xlink:href="#path-7"></use>
                                <rect stroke="#605D5E" stroke-width="0.5" x="1.30586091" y="1.40461455" width="77.1742122" height="157.459555" rx="4.6"></rect>
                            </g>
                        </g>
                        <path d="M80.6552401,28.9575259 L80.6552401,52.593599 C80.7680814,52.514659 80.8418775,52.3837322 80.8418775,52.2355694 L80.8418775,29.3155555 C80.8418775,29.1673927 80.7680814,29.0364659 80.6552401,28.9575259 Z M80.6552401,60.2704051 L80.6552401,70.1425752 C80.7680814,70.0636352 80.8418775,69.9327084 80.8418775,69.7845456 L80.8418775,60.6284347 C80.8418775,60.4802719 80.7680814,60.349345 80.6552401,60.2704051 Z M0.436637405,54.7648439 C0.323796081,54.8437839 0.25,54.9747107 0.25,55.1228735 L0.25,64.2789844 C0.25,64.4271473 0.323796081,64.5580741 0.436637405,64.6370141 L0.436637405,54.7648439 Z" id="Rectangle-12" stroke="#231F20" stroke-width="0.5"></path>
                        <g id="Rectangle-11">
                            <use fill="#F4F4F4" fill-rule="evenodd" xlink:href="#path-8"></use>
                            <rect stroke="#605D5E" stroke-width="0.5" x="4.84387483" y="16.266178" width="71.4041278" height="127.629424" rx="0.8"></rect>
                        </g>
                        <rect id="Rectangle-5" stroke="#605D5E" stroke-width="0.5" x="33.5049933" y="148.900657" width="14.0818908" height="5.30485339" rx="2.65242669"></rect>
                        <g id="Group-2" transform="translate(23.968043, 4.804853)" stroke="#3E3A3B" stroke-width="0.5">
                            <rect id="Rectangle-3" x="8.67304038" y="1.18803191" width="14.6118202" height="1.68891179" rx="0.844455895"></rect>
                            <rect id="Rectangle-4" x="28.1524387" y="1.01291896" width="5.35255465" height="2.12669415" rx="1.06334707"></rect>
                            <ellipse id="Oval-1" cx="1.99733688" cy="2.00202224" rx="1.99733688" ry="2.00202224"></ellipse>
                        </g>
                    </g>
                    <rect id="Rectangle-16" x="34.9533955" y="40.4408493" width="37.7496671" height="16.4165824"></rect>
                    <g id="模态对话框/有图" transform="translate(21.970706, 24.224469)">
                        <rect id="Rectangle-" fill="#FFFFFF" x="0" y="0" width="63.7150466" height="73.6744186" rx="1.6"></rect>
                        <rect id="Rectangle-" fill="#EBEBEB" x="3.99467377" y="14.2143579" width="55.3262317" height="37.8382204"></rect>
                        <rect id="Line" fill="#E5E5E5" x="0" y="62.0626896" width="63.7150466" height="1"></rect>
                    </g>
                    <rect id="Rectangle-10" fill="#EBEBEB" x="47.1371505" y="30.4307381" width="13.1824234" height="4.00404449" rx="0.8"></rect>
                    <rect id="Rectangle-10" fill="#EBEBEB" x="27.7629827" y="80.0808898" width="52.1304927" height="4.00404449" rx="0.8"></rect>
                    <rect id="Rectangle-10" fill="#EBEBEB" x="43.5419441" y="90.091001" width="20.3728362" height="4.00404449" rx="0.8"></rect>
                    <rect id="Rectangle-9" fill="#EBEBEB" x="21.770972" y="110.912032" width="63.7150466" height="10.8109201" rx="5.40546006"></rect>
                    <g id="Group" transform="translate(41.944075, 141.943377)">
                        <path d="M9.62476698,19.081274 C4.39294274,19.081274 0.136817577,14.8151648 0.136817577,9.57146815 C0.136817577,4.32757128 4.39294274,0.0616622851 9.62476698,0.0616622851 C14.8561917,0.0616622851 19.1121172,4.32757128 19.1121172,9.57146815 C19.1121172,14.8151648 14.8561917,19.081274 9.62476698,19.081274 Z M9.62476698,0.361965622 C4.5581225,0.361965622 0.436418109,4.49313852 0.436418109,9.57146815 C0.436418109,14.6495976 4.5581225,18.7809707 9.62476698,18.7809707 C14.691012,18.7809707 18.8125166,14.6495976 18.8125166,9.57146815 C18.8125166,4.49313852 14.691012,0.361965622 9.62476698,0.361965622 Z" id="Fill-2" fill="#F2F2F2"></path>
                        <path d="M9.62476698,18.0802629 C4.94360852,18.0802629 1.13548602,14.2632073 1.13548602,9.57146815 C1.13548602,4.87952882 4.94360852,1.06267341 9.62476698,1.06267341 C14.305526,1.06267341 18.1134487,4.87952882 18.1134487,9.57146815 C18.1134487,14.2632073 14.305526,18.0802629 9.62476698,18.0802629 Z M9.62476698,1.36297674 C5.10878828,1.36297674 1.43508655,5.04509606 1.43508655,9.57146815 C1.43508655,14.09764 5.10878828,17.7799596 9.62476698,17.7799596 C14.1403462,17.7799596 17.8138482,14.09764 17.8138482,9.57146815 C17.8138482,5.04509606 14.1403462,1.36297674 9.62476698,1.36297674 Z" id="Fill-3" fill="#E0E0E0"></path>
                        <path d="M9.62476698,16.8570273 C5.61651132,16.8570273 2.35585885,13.588726 2.35585885,9.57146815 C2.35585885,5.55421031 5.61651132,2.285909 9.62476698,2.285909 C13.6324234,2.285909 16.8930759,5.55421031 16.8930759,9.57146815 C16.8930759,13.588726 13.6324234,16.8570273 9.62476698,16.8570273 Z M9.62476698,2.58621234 C5.78169108,2.58621234 2.65545939,5.71977755 2.65545939,9.57146815 C2.65545939,13.4231587 5.78169108,16.556724 9.62476698,16.556724 C13.4672437,16.556724 16.5934754,13.4231587 16.5934754,9.57146815 C16.5934754,5.71977755 13.4672437,2.58621234 9.62476698,2.58621234 Z" id="Fill-4" fill="#C6C6C6"></path>
                        <path d="M9.62476698,15.6337917 C6.28961385,15.6337917 3.57623169,12.9142447 3.57623169,9.57146815 C3.57623169,6.22849141 6.28961385,3.50894439 9.62476698,3.50894439 C12.9595206,3.50894439 15.6727031,6.22849141 15.6727031,9.57146815 C15.6727031,12.9142447 12.9595206,15.6337917 9.62476698,15.6337917 Z M9.62476698,3.80924772 C6.45479361,3.80924772 3.87583222,6.39405865 3.87583222,9.57146815 C3.87583222,12.7486775 6.45479361,15.3334884 9.62476698,15.3334884 C12.7943409,15.3334884 15.3731025,12.7486775 15.3731025,9.57146815 C15.3731025,6.39405865 12.7943409,3.80924772 9.62476698,3.80924772 Z" id="Fill-5" fill="#ADADAD"></path>
                    </g>
                    <path d="M48.6744948,141.569305 C49.9492975,140.127285 61.0752396,138.537069 63.7471214,138.770286 C67.8882511,139.131747 72.0427356,136.137513 74.9195815,136.137513 C78.6431175,136.137513 90.7146102,143.394235 110.805077,142.7887 C113.254016,142.714888 121.4816,144.636394 124.173728,144.553584 C136.294905,144.180739 116.959416,184.612952 105.781029,184.310322 C98.8686182,184.123184 97.1831891,172.846458 95.3394316,170.754674 C90.5140465,165.280166 83.6345217,161.361913 74.7008573,158.999915 C67.0355252,159.697193 61.9839501,159.697193 59.5461322,158.999915 C53.1094623,157.158864 50.7202571,155.739618 49.4848691,154.297003 C47.7203368,152.236485 47.3464316,149.259288 47.1698921,146.769322 C46.9730807,143.993436 47.6873007,142.68599 48.6744948,141.569305 Z" id="Rectangle-25" fill="url(#linearGradient-9)"></path>
                </g>
                <rect id="Rectangle-13-Copy-2" fill="#FBFBFB" x="0" y="317" width="375" height="317"></rect>
                <text id="开机/关机/重启手机" font-family="PingFangSC-Medium, PingFang SC" font-size="15" font-weight="400" letter-spacing="0.964284599" fill="#333333">
                    <tspan x="116.178577" y="41">开机/关机/重启手机</tspan>
                </text>
                <text id="退出应用" font-family="PingFangSC-Medium, PingFang SC" font-size="15" font-weight="400" letter-spacing="0.964284599" fill="#333333">
                    <tspan x="157.071431" y="675">退出应用</tspan>
                </text>
                <text id="解锁" font-family="PingFangSC-Medium, PingFang SC" font-size="15" font-weight="400" letter-spacing="0.964284599" fill="#333333">
                    <tspan x="173.035715" y="358">解锁</tspan>
                </text>
                <text id="可通过长按“电源键”来开机/关机/重启手" font-family="PingFangSC-Regular, PingFang SC" font-size="12" font-weight="normal" letter-spacing="0.771427751" fill="#A6A6A6">
                    <tspan x="65.4560086" y="64">可通过长按“电源键”来开机/关机/重启手机</tspan>
                </text>
                <text id="按下“返回键”或“Home键”可退出当前" font-family="PingFangSC-Regular, PingFang SC" font-size="12" font-weight="normal" letter-spacing="0.771427751" fill="#A6A6A6">
                    <tspan x="66.3302947" y="698">按下“返回键”或“Home键”可退出当前应用</tspan>
                </text>
                <text id="屏幕被点亮后，任意滑动屏幕可解锁手机" font-family="PingFangSC-Regular, PingFang SC" font-size="12" font-weight="normal" letter-spacing="0.771427751" fill="#A6A6A6">
                    <tspan x="73.0571502" y="381">屏幕被点亮后，任意滑动屏幕可解锁手机</tspan>
                </text>
                <g id="xian1" transform="translate(23.000000, 316.000000)">
                    <rect id="Separator-Copy-2" x="5" y="0" width="323" height="1"></rect>
                </g>
                <g id="xian1-copy" transform="translate(23.000000, 633.000000)">
                    <rect id="Separator-Copy-2" x="5" y="0" width="323" height="1"></rect>
                </g>
                <path d="M68.7953434,163 C104.506599,171.068563 127.267576,177.716505 137.078274,182.943826 C145.697502,187.53631 148.149101,194.846465 152.436048,196.567081 C164.935047,201.5837 174.765442,187.589558 175.83183,190.292223 C176.770956,192.672354 180.676582,196.936049 183.026471,211.932167 C183.974159,217.979961 183.820734,230.35959 183.820734,243.868694 C183.820734,246.317194 182.740874,251.357725 184.783545,256.411965 C186.74724,261.270792 191.822989,266.10902 192.47281,270.292965 C192.684987,271.659089 195.789971,274.658298 197.70102,279.320974 C198.09966,280.293597 198.09966,281.918967 197.70102,284.197086 C178.569964,288.733016 165.934915,291.000654 159.795871,291 C150.703408,290.999031 142.691395,284.349745 142.45646,284.197086 C130.998851,276.752014 119.787084,269.397382 116.945283,264.107594 C115.903728,262.168821 113.037142,254.533469 113.032668,252.698568 C113.001098,239.751016 98.5809324,230.053147 69.7721725,223.604961 C67.8131448,223.559339 66.4662056,223.448807 65.7313549,223.273365 C60.0872857,221.925871 59.6216223,219.848666 59.1862914,217.25465 C58.7509605,214.660634 62.6051718,212.56784 62.2914811,212.368691 C56.9677032,208.988851 56.8315237,206.629763 56.7616176,205.249589 C56.4223233,198.550814 65.8365912,197.596815 65.7313549,197.596815 C64.6332462,197.596815 62.2098377,196.437172 61.045605,196.192578 C57.1056684,195.364834 56.0501393,190.371851 56.0012178,188.391823 C55.8672675,182.970384 66.8285783,181.029581 66.802634,180.132546 C66.7992164,180.014378 70.0565189,180.217556 70.0529355,180.132546 C70.0322151,179.640992 69.9179522,179.358161 69.9854439,179.358161 C70.0529355,179.358161 67.4011389,179.645381 66.5519841,179.358161 C58.7807758,176.729606 58.7585581,171.517727 58.7509605,170.572436 C58.7196129,166.672206 62.0677405,164.14806 68.7953434,163 Z" id="Rectangle-28" fill="url(#linearGradient-10)"></path>
                <g id="Group-3" transform="translate(63.000000, 98.000000)">
                    <g id="Group" transform="translate(0.602546, 0.000000)">
                        <g id="Rectangle-2">
                            <use fill="#FFFFFF" fill-rule="evenodd" xlink:href="#path-11"></use>
                            <rect stroke="#231F20" stroke-width="0.5" x="0.25" y="0.25" width="79.8394625" height="159.5" rx="5.2"></rect>
                        </g>
                        <g id="Rectangle-1">
                            <use fill="#FFFFFF" fill-rule="evenodd" xlink:href="#path-12"></use>
                            <rect stroke="#605D5E" stroke-width="0.5" x="1.31175501" y="1.40344828" width="77.6078108" height="157.3" rx="4.6"></rect>
                        </g>
                    </g>
                    <path d="M81.1040841,28.9277724 L81.1040841,52.5409776 C81.2191528,52.4615123 81.2945545,52.3287015 81.2945545,52.1782796 L81.2945545,29.2904704 C81.2945545,29.1400485 81.2191528,29.0072377 81.1040841,28.9277724 Z M81.1040841,60.2090224 L81.1040841,70.0722276 C81.2191528,69.9927623 81.2945545,69.8599515 81.2945545,69.7095296 L81.2945545,60.5717204 C81.2945545,60.4212985 81.2191528,60.2884877 81.1040841,60.2090224 Z M0.440470402,54.7090224 C0.325401665,54.7884877 0.25,54.9212985 0.25,55.0717204 L0.25,64.2095296 C0.25,64.3599515 0.325401665,64.4927623 0.440470402,64.5722276 L0.440470402,54.7090224 Z" id="Rectangle-12" stroke="#231F20" stroke-width="0.5"></path>
                    <rect id="Rectangle-11" stroke="#605D5E" stroke-width="0.5" x="4.86951909" y="16.25" width="71.8055163" height="127.5" rx="0.8"></rect>
                    <g id="Group-2" transform="translate(24.101839, 4.800000)" stroke="#3E3A3B" stroke-width="0.5">
                        <rect id="Rectangle-3" x="8.72006009" y="1.1870844" width="14.6961785" height="1.68670077" rx="0.843350384"></rect>
                        <rect id="Rectangle-4" x="28.3081977" y="1.01214834" width="5.38522521" height="2.12404092" rx="1.06202046"></rect>
                        <ellipse id="Oval-1" cx="2.00848656" cy="2" rx="2.00848656" ry="2"></ellipse>
                    </g>
                </g>
                <g id="内容" transform="translate(71.000000, 119.000000)" opacity="0.3">
                    <g id="Rectangle">
                        <use fill="#D8D8D8" fill-rule="evenodd" xlink:href="#path-13"></use>
                        <rect stroke="#979797" stroke-width="0.5" x="0.25" y="0.25" width="64.374116" height="41.7797342"></rect>
                    </g>
                </g>
                <g id="内容" transform="translate(71.000000, 165.000000)" opacity="0.3">
                    <g id="Rectangle">
                        <use fill="#D8D8D8" fill-rule="evenodd" xlink:href="#path-14"></use>
                        <rect stroke="#979797" stroke-width="0.5" x="0.25" y="0.25" width="64.374116" height="41.7797342"></rect>
                    </g>
                </g>
                <g id="内容" transform="translate(71.000000, 212.000000)" opacity="0.3">
                    <g id="Rectangle">
                        <use fill="#D8D8D8" fill-rule="evenodd" xlink:href="#path-15"></use>
                        <path stroke="#979797" stroke-width="0.5" d="M0.25,0.25 L0.25,30.4681804 L64.624116,30.4681804 L64.624116,0.25 L0.25,0.25 Z"></path>
                    </g>
                </g>
                <path d="M147.857389,151.104743 C149.102261,151.104743 156.214193,159.232984 159.031764,161.444816 C161.651983,163.501724 165.855561,160.490623 170.045441,167.6611 C170.948728,169.206966 174.302137,178.538512 178.731804,192.136602 C178.981362,192.902691 180.234926,198.248227 181.602719,203.500342 C182.380489,206.486858 183.207363,208.892346 183.877165,211.785043 C184.33868,213.778204 186.308746,223.738022 185.958533,230.452013 C185.69066,235.587457 180.075941,237.746849 176.983953,237.980587 C169.233515,238.566478 152.498717,225.728645 149.51087,221.417169 C148.082459,219.355965 150.818793,200.481112 151.081581,198.807396 C151.416769,196.672568 150.898716,194.74059 151.081581,193.399159 C151.689064,188.942879 150.344661,185.230384 150.493643,183.66984 C150.695132,181.559295 150.726124,180.459553 150.586619,180.370613 C146.864824,177.997831 143.025441,172.213092 143.025441,170.200757 C143.025441,159.660264 142.67127,153.102376 144.605834,151.84577 C146.540398,150.589163 147.286925,151.104743 147.857389,151.104743 Z" id="Rectangle-27" fill="url(#linearGradient-16)" transform="translate(164.500000, 194.500000) rotate(3.000000) translate(-164.500000, -194.500000) "></path>
                <g id="Group" transform="translate(136.000000, 153.000000)">
                    <path d="M9.67849505,19.062 C4.41746535,19.062 0.13758133,14.8002 0.13758133,9.5618 C0.13758133,4.3232 4.41746535,0.0616 9.67849505,0.0616 C14.9391231,0.0616 19.2188062,4.3232 19.2188062,9.5618 C19.2188062,14.8002 14.9391231,19.062 9.67849505,19.062 Z M9.67849505,0.3616 C4.58356719,0.3616 0.438854314,4.4886 0.438854314,9.5618 C0.438854314,14.6348 4.58356719,18.762 9.67849505,18.762 C14.7730212,18.762 18.9175332,14.6348 18.9175332,9.5618 C18.9175332,4.4886 14.7730212,0.3616 9.67849505,0.3616 Z" id="Fill-2" fill="#F2F2F2"></path>
                    <path d="M9.67849505,18.062 C4.97120509,18.062 1.14182461,14.2488 1.14182461,9.5618 C1.14182461,4.8746 4.97120509,1.0616 9.67849505,1.0616 C14.3853833,1.0616 18.2145629,4.8746 18.2145629,9.5618 C18.2145629,14.2488 14.3853833,18.062 9.67849505,18.062 Z M9.67849505,1.3616 C5.13730693,1.3616 1.4430976,5.04 1.4430976,9.5618 C1.4430976,14.0834 5.13730693,17.762 9.67849505,17.762 C14.2192815,17.762 17.91329,14.0834 17.91329,9.5618 C17.91329,5.04 14.2192815,1.3616 9.67849505,1.3616 Z" id="Fill-3" fill="#E0E0E0"></path>
                    <path d="M9.67849505,16.84 C5.64786421,16.84 2.3690099,13.575 2.3690099,9.5618 C2.3690099,5.5486 5.64786421,2.2836 9.67849505,2.2836 C13.7085233,2.2836 16.9873777,5.5486 16.9873777,9.5618 C16.9873777,13.575 13.7085233,16.84 9.67849505,16.84 Z M9.67849505,2.5836 C5.81396605,2.5836 2.67028289,5.714 2.67028289,9.5618 C2.67028289,13.4096 5.81396605,16.54 9.67849505,16.54 C13.5424215,16.54 16.6861047,13.4096 16.6861047,9.5618 C16.6861047,5.714 13.5424215,2.5836 9.67849505,2.5836 Z" id="Fill-4" fill="#C6C6C6"></path>
                    <path d="M9.67849505,15.618 C6.32472419,15.618 3.59619519,12.9012 3.59619519,9.5618 C3.59619519,6.2222 6.32472419,3.5054 9.67849505,3.5054 C13.0318642,3.5054 15.7601924,6.2222 15.7601924,9.5618 C15.7601924,12.9012 13.0318642,15.618 9.67849505,15.618 Z M9.67849505,3.8054 C6.49082603,3.8054 3.89746818,6.3876 3.89746818,9.5618 C3.89746818,12.7358 6.49082603,15.318 9.67849505,15.318 C12.8657624,15.318 15.4589194,12.7358 15.4589194,9.5618 C15.4589194,6.3876 12.8657624,3.8054 9.67849505,3.8054 Z" id="Fill-5" fill="#ADADAD"></path>
                </g>
                <g id="Group-6" transform="translate(250.000000, 98.000000)">
                    <g id="Group-3">
                        <g id="Group" transform="translate(0.598522, 0.000000)">
                            <g id="Rectangle-2">
                                <use fill="#FFFFFF" fill-rule="evenodd" xlink:href="#path-17"></use>
                                <rect stroke="#231F20" stroke-width="0.5" x="0.25" y="0.25" width="79.3029557" height="159.5" rx="5.46"></rect>
                            </g>
                            <g id="Rectangle-1">
                                <use fill="#FFFFFF" fill-rule="evenodd" xlink:href="#path-18"></use>
                                <rect stroke="#605D5E" stroke-width="0.5" x="1.30466461" y="1.40344828" width="77.0862069" height="157.3" rx="4.83"></rect>
                            </g>
                        </g>
                        <path d="M80.5641406,28.9287798 L80.5641406,52.5399702 C80.6765296,52.4611382 80.75,52.3305943 80.75,52.1828906 L80.75,29.2858594 C80.75,29.1381557 80.6765296,29.0076118 80.5641406,28.9287798 Z M80.5641406,60.2100298 L80.5641406,70.0712202 C80.6765296,69.9923882 80.75,69.8618443 80.75,69.7141406 L80.75,60.5671094 C80.75,60.4194057 80.6765296,60.2888618 80.5641406,60.2100298 Z M0.435859441,54.7100298 C0.323470435,54.7888618 0.25,54.9194057 0.25,55.0671094 L0.25,64.2141406 C0.25,64.3618443 0.323470435,64.4923882 0.435859441,64.5712202 L0.435859441,54.7100298 Z" id="Rectangle-12" stroke="#231F20" stroke-width="0.5"></path>
                        <g id="Rectangle-11">
                            <use fill="#D8D8D8" fill-rule="evenodd" xlink:href="#path-19"></use>
                            <rect stroke="#605D5E" stroke-width="0.5" x="4.83866995" y="16.25" width="71.3226601" height="127.5" rx="0.84"></rect>
                        </g>
                        <g id="Group-2" transform="translate(23.940887, 4.800000)" stroke="#3E3A3B" stroke-width="0.5">
                            <rect id="Rectangle-3" x="8.66349703" y="1.1870844" width="14.5946984" height="1.68670077" rx="0.843350384"></rect>
                            <rect id="Rectangle-4" x="28.1208251" y="1.01214834" width="5.34592368" height="2.12404092" rx="1.06202046"></rect>
                            <ellipse id="Oval-1" cx="1.99507389" cy="2" rx="1.99507389" ry="2"></ellipse>
                        </g>
                        <g id="Page-1" transform="translate(25.536946, 73.000000)">
                            <g id="Group-3" transform="translate(0.000000, 0.054560)">
                                <mask id="mask-21" fill="white">
                                    <use xlink:href="#path-20"></use>
                                </mask>
                                <g id="Clip-2"></g>
                                <path d="M28.4501727,4.71742 C28.5982071,3.56182 29.5863672,2.66522 30.7790224,2.66522 C31.9714781,2.66522 32.9598377,3.56182 33.1074732,4.71742 L28.4501727,4.71742 Z M33.7281406,5.01902 C33.7281406,3.38882 32.4052071,2.06222 30.7790224,2.06222 C29.1524387,2.06222 27.8293057,3.38882 27.8293057,5.01902 C27.8293057,6.64942 29.1524387,7.97582 30.7790224,7.97582 C31.9992096,7.97582 33.1086702,7.20682 33.5396062,6.06262 C33.5984608,5.90682 33.5194559,5.73242 33.3642392,5.67402 C33.2092219,5.61542 33.0348525,5.69362 32.9761973,5.84922 C32.6328451,6.76102 31.7500249,7.37282 30.7790224,7.37282 C29.5863672,7.37282 28.5982071,6.47682 28.4501727,5.32062 L33.427483,5.32062 C33.5936727,5.32062 33.7281406,5.18562 33.7281406,5.01902 Z M27.9234732,2.09382 C27.7746406,2.01962 27.594286,2.08002 27.5200692,2.22882 L25.1475273,6.99882 L22.7739879,2.22882 C22.7007687,2.08002 22.520015,2.01962 22.3707835,2.09382 C22.22235,2.16822 22.1615002,2.34922 22.2359165,2.49822 L24.8783919,7.80942 C24.8791899,7.81102 24.8799879,7.81222 24.881185,7.81402 C24.8927564,7.83622 24.9073204,7.85722 24.9244781,7.87582 C24.9280692,7.88002 24.9320594,7.88342 24.936249,7.88742 C24.9498155,7.90102 24.9645791,7.91342 24.9811382,7.92442 C24.9871234,7.92862 24.9937071,7.93282 25.0000914,7.93622 C25.0044805,7.93862 25.0084707,7.94242 25.0128599,7.94482 C25.0244313,7.95042 25.0364017,7.95342 25.0483722,7.95722 C25.056153,7.96002 25.0633352,7.96382 25.071914,7.96602 C25.0962539,7.97202 25.1215914,7.97582 25.1471283,7.97582 L25.1475273,7.97582 C25.1726653,7.97582 25.1980027,7.97202 25.2227416,7.96602 C25.2303229,7.96382 25.2379042,7.96002 25.245685,7.95722 C25.2578549,7.95342 25.2702244,7.95042 25.2815963,7.94482 C25.286584,7.94242 25.2897761,7.93862 25.2943648,7.93622 C25.301148,7.93282 25.3067342,7.92882 25.3131185,7.92442 C25.3298771,7.91342 25.3452392,7.90102 25.3586062,7.88742 C25.3625963,7.88342 25.366786,7.88002 25.3701776,7.87582 C25.3873352,7.85722 25.4018993,7.83622 25.4128722,7.81402 C25.4138697,7.81222 25.4152663,7.81102 25.4160643,7.80942 L28.0583401,2.49822 C28.1327564,2.34922 28.0719067,2.16822 27.9234732,2.09382 Z M19.0092835,1.81502 C18.8586554,1.81502 18.7112195,1.82662 18.5665766,1.84682 C18.3357466,1.87882 18.1122983,1.93542 17.9006209,2.01422 C17.8864559,2.01962 17.8722909,2.02582 17.8583254,2.03102 C17.6817613,2.11122 17.5582663,2.28842 17.5582663,2.49562 C17.5582663,2.77742 17.7861037,3.00562 18.0664116,3.00562 C18.1222736,3.00562 18.1761406,2.99622 18.2260175,2.97942 C18.2413796,2.97322 18.2557441,2.96742 18.2715052,2.96202 C18.441685,2.90022 18.6208426,2.85982 18.8085791,2.84202 C18.874616,2.83622 18.9412515,2.83302 19.0092835,2.83302 C20.2077244,2.83302 21.1795249,3.80622 21.1795249,5.00762 C21.1795249,6.20902 20.2077244,7.18242 19.0092835,7.18242 C17.8112416,7.18242 16.8396406,6.20902 16.8396406,5.00762 C16.8396406,4.28322 17.1935667,3.64182 17.7370249,3.24642 C17.4491357,3.11882 17.2474337,2.83062 17.2474337,2.49562 C17.2474337,2.44222 17.2532195,2.38922 17.2627958,2.33842 C16.3967342,2.90882 15.8247466,3.89122 15.8247466,5.00762 C15.8247466,6.77102 17.2502268,8.20002 19.0092835,8.20002 C20.7679411,8.20002 22.19402,6.77102 22.19402,5.00762 C22.19402,3.24482 20.7679411,1.81502 19.0092835,1.81502 Z M16.6947983,0.17822 C16.5467638,0.10302 16.3656111,0.16182 16.2903968,0.31042 L12.5977145,7.58722 C12.5221012,7.73542 12.5813549,7.91682 12.7291899,7.99222 C12.772882,8.01502 12.8191677,8.02562 12.8654534,8.02562 C12.9747835,8.02562 13.0805224,7.96482 13.1337909,7.86042 L16.8268722,0.58382 C16.9020865,0.43542 16.8424337,0.25382 16.6947983,0.17822 Z M9.24698793,7.37282 C7.95218498,7.37282 6.89858645,6.31722 6.89858645,5.01902 C6.89858645,3.72102 7.95218498,2.66502 9.24698793,2.66502 C10.5411924,2.66502 11.5947909,3.72102 11.5947909,5.01902 C11.5947909,6.31722 10.5411924,7.37282 9.24698793,7.37282 Z M9.24698793,2.06222 C7.62060369,2.06222 6.29747069,3.38882 6.29747069,5.01902 C6.29747069,6.64942 7.62060369,7.97582 9.24698793,7.97582 C10.2048229,7.97582 11.0555224,7.51322 11.5947909,6.80162 L11.5947909,7.72382 C11.5947909,7.89062 11.7290594,8.02562 11.895648,8.02562 C12.0614387,8.02562 12.1961062,7.89062 12.1961062,7.72382 L12.1961062,5.01902 C12.1961062,3.38882 10.8735717,2.06222 9.24698793,2.06222 Z M2.94953719,2.06222 C1.99110369,2.06222 1.14060369,2.52442 0.601534729,3.23702 L0.601534729,0.44682 C0.601534729,0.28022 0.466268719,0.14542 0.300478079,0.14542 C0.134288424,0.14542 -0.00017955665,0.28022 -0.00017955665,0.44682 L-0.00017955665,7.72382 C-0.00017955665,7.89062 0.134288424,8.02562 0.300478079,8.02562 C0.466268719,8.02562 0.601534729,7.89062 0.601534729,7.72382 L0.601534729,5.01902 C0.601534729,3.72102 1.65493374,2.66502 2.94953719,2.66502 C4.24394113,2.66502 5.29734015,3.72102 5.29734015,5.01902 L5.29734015,7.72382 C5.29734015,7.89062 5.43180813,8.02562 5.59779828,8.02562 C5.76458645,8.02562 5.89925394,7.89062 5.89925394,7.72382 L5.89925394,5.01902 C5.89925394,3.38882 4.57592143,2.06222 2.94953719,2.06222 Z" id="Fill-1" fill="#9E9C9C" mask="url(#mask-21)"></path>
                            </g>
                        </g>
                    </g>
                </g>
                <g id="Group-6" transform="translate(50.000000, 415.000000)">
                    <path d="M89.5465704,53.4897047 C97.4918394,52.900003 102.654543,70.0817089 107.079254,80.006843 C107.768984,81.5539869 113.644342,95.6501401 120.610112,104.999131 C123.047511,108.270446 126.451679,116.113738 133.253783,125.271313 C137.788519,131.376363 143.363566,146.486236 149.978924,170.600933 C125.414854,170.963227 110.737617,171.027015 105.947212,170.7923 C85.0664786,169.769206 82.7024669,160.047181 75.9673993,156.673812 C66.1142697,151.73871 61.7906828,138.928756 59.0350724,136.112158 C51.9948615,128.916134 18.1691105,108.691075 14.1029807,107.271984 C12.5337246,106.724309 10.3900259,104.675627 9.52066114,103.628525 C9.02107667,103.026803 8.72804072,101.429576 8.65891812,100.248884 C8.56077014,98.5724068 9.18068029,96.8706708 9.52066114,96.8088051 C9.86064198,96.7469394 7.94440925,96.8953484 7.11646313,96.7088766 C3.73523033,95.9473483 1.21261752,94.1507175 0.371754356,91.9906186 C-0.464692945,89.8418637 0.371754356,87.3307248 0.371754356,86.150025 C0.371754356,84.0464749 15.652343,84.9452455 15.502833,83.7025449 C15.0071642,79.5826341 15.503297,78.5012075 14.1029807,77.6146746 C13.8050183,77.4260362 13.4943896,77.2676734 13.1710944,77.1395864 C6.23476432,74.3914666 7.11646313,69.7495474 7.11646313,68.9610262 C7.11646313,65.8989269 9.38364429,64.3678772 13.9180066,64.3678772 C46.8079871,58.4167778 72.0175084,54.7907203 89.5465704,53.4897047 Z" id="Rectangle-26" fill="url(#linearGradient-5)"></path>
                    <g id="Group-3" transform="translate(13.981358, 0.000000)">
                        <g id="Group" transform="translate(0.599201, 0.000000)">
                            <g id="Rectangle-2">
                                <use fill="#FFFFFF" fill-rule="evenodd" xlink:href="#path-22"></use>
                                <rect stroke="#231F20" stroke-width="0.5" x="0.25" y="0.25" width="79.3934754" height="159.126604" rx="5.2"></rect>
                            </g>
                            <g id="Rectangle-1">
                                <use fill="#FFFFFF" fill-rule="evenodd" xlink:href="#path-23"></use>
                                <rect stroke="#605D5E" stroke-width="0.5" x="1.30586091" y="1.40075645" width="77.1742122" height="156.931739" rx="4.6"></rect>
                            </g>
                        </g>
                        <path d="M80.6552401,28.8618633 L80.6552401,52.4167612 C80.7680814,52.3378212 80.8418775,52.2068944 80.8418775,52.0587316 L80.8418775,29.2198929 C80.8418775,29.0717301 80.7680814,28.9408033 80.6552401,28.8618633 Z M80.6552401,60.0701116 L80.6552401,69.9070982 C80.7680814,69.8281582 80.8418775,69.6972314 80.8418775,69.5490685 L80.8418775,60.4281412 C80.8418775,60.2799784 80.7680814,60.1490516 80.6552401,60.0701116 Z M0.436637405,54.5829471 C0.323796081,54.661887 0.25,54.7928139 0.25,54.9409767 L0.25,64.061904 C0.25,64.2100668 0.323796081,64.3409937 0.436637405,64.4199336 L0.436637405,54.5829471 Z" id="Rectangle-12" stroke="#231F20" stroke-width="0.5"></path>
                        <g id="Rectangle-11">
                            <use fill="#F4F4F4" fill-rule="evenodd" xlink:href="#path-24"></use>
                            <rect stroke="#605D5E" stroke-width="0.5" x="4.84387483" y="16.2126604" width="71.4041278" height="127.201284" rx="0.8"></rect>
                        </g>
                        <g id="Group-2" transform="translate(23.968043, 4.788798)" stroke="#3E3A3B" stroke-width="0.5">
                            <rect id="Rectangle-3" x="8.67304038" y="1.1848975" width="14.6118202" height="1.68159761" rx="0.840798807"></rect>
                            <rect id="Rectangle-4" x="28.1524387" y="1.0103697" width="5.35255465" height="2.11791714" rx="1.05895857"></rect>
                            <ellipse id="Oval-1" cx="1.99733688" cy="1.99533256" rx="1.99733688" ry="1.99533256"></ellipse>
                        </g>
                    </g>
                    <g id="Group" transform="translate(42.000000, 101.000000)">
                        <path d="M9.67849505,19.062 C4.41746535,19.062 0.13758133,14.8002 0.13758133,9.5618 C0.13758133,4.3232 4.41746535,0.0616 9.67849505,0.0616 C14.9391231,0.0616 19.2188062,4.3232 19.2188062,9.5618 C19.2188062,14.8002 14.9391231,19.062 9.67849505,19.062 Z M9.67849505,0.3616 C4.58356719,0.3616 0.438854314,4.4886 0.438854314,9.5618 C0.438854314,14.6348 4.58356719,18.762 9.67849505,18.762 C14.7730212,18.762 18.9175332,14.6348 18.9175332,9.5618 C18.9175332,4.4886 14.7730212,0.3616 9.67849505,0.3616 Z" id="Fill-2" fill="#F2F2F2"></path>
                        <path d="M9.67849505,18.062 C4.97120509,18.062 1.14182461,14.2488 1.14182461,9.5618 C1.14182461,4.8746 4.97120509,1.0616 9.67849505,1.0616 C14.3853833,1.0616 18.2145629,4.8746 18.2145629,9.5618 C18.2145629,14.2488 14.3853833,18.062 9.67849505,18.062 Z M9.67849505,1.3616 C5.13730693,1.3616 1.4430976,5.04 1.4430976,9.5618 C1.4430976,14.0834 5.13730693,17.762 9.67849505,17.762 C14.2192815,17.762 17.91329,14.0834 17.91329,9.5618 C17.91329,5.04 14.2192815,1.3616 9.67849505,1.3616 Z" id="Fill-3" fill="#E0E0E0"></path>
                        <path d="M9.67849505,16.84 C5.64786421,16.84 2.3690099,13.575 2.3690099,9.5618 C2.3690099,5.5486 5.64786421,2.2836 9.67849505,2.2836 C13.7085233,2.2836 16.9873777,5.5486 16.9873777,9.5618 C16.9873777,13.575 13.7085233,16.84 9.67849505,16.84 Z M9.67849505,2.5836 C5.81396605,2.5836 2.67028289,5.714 2.67028289,9.5618 C2.67028289,13.4096 5.81396605,16.54 9.67849505,16.54 C13.5424215,16.54 16.6861047,13.4096 16.6861047,9.5618 C16.6861047,5.714 13.5424215,2.5836 9.67849505,2.5836 Z" id="Fill-4" fill="#C6C6C6"></path>
                        <path d="M9.67849505,15.618 C6.32472419,15.618 3.59619519,12.9012 3.59619519,9.5618 C3.59619519,6.2222 6.32472419,3.5054 9.67849505,3.5054 C13.0318642,3.5054 15.7601924,6.2222 15.7601924,9.5618 C15.7601924,12.9012 13.0318642,15.618 9.67849505,15.618 Z M9.67849505,3.8054 C6.49082603,3.8054 3.89746818,6.3876 3.89746818,9.5618 C3.89746818,12.7358 6.49082603,15.318 9.67849505,15.318 C12.8657624,15.318 15.4589194,12.7358 15.4589194,9.5618 C15.4589194,6.3876 12.8657624,3.8054 9.67849505,3.8054 Z" id="Fill-5" fill="#ADADAD"></path>
                    </g>
                    <path d="M43.5338817,114.441671 C44.8370134,113.00447 56.2101987,111.419567 58.9414556,111.652005 C63.1746104,112.012258 67.4214168,109.028029 70.3621926,109.028029 C74.1684739,109.028029 86.5082219,116.260503 107.045144,115.656991 C109.548504,115.583426 117.958923,117.498511 120.710875,117.415979 C133.101412,117.044379 113.336246,157.341489 101.90945,157.039871 C94.8434301,156.853358 93.120547,145.614313 91.2358171,143.529518 C86.3032012,138.073304 79.2707981,134.168143 70.1386079,131.814037 C62.302935,132.508985 57.1391027,132.508985 54.647111,131.814037 C48.0674041,129.979138 45.6251054,128.564634 44.3622643,127.12684 C42.5585202,125.073207 42.176306,122.105959 41.9958434,119.624312 C41.7946584,116.857702 42.52475,115.554625 43.5338817,114.441671 Z" id="Rectangle-25" fill="url(#linearGradient-9)" transform="translate(83.307248, 133.034792) rotate(18.000000) translate(-83.307248, -133.034792) "></path>
                </g>
                <g id="Group-7" transform="translate(250.000000, 415.000000)">
                    <g id="Group-3">
                        <g id="Group" transform="translate(0.598522, 0.000000)">
                            <g id="Rectangle-2">
                                <use fill="#FFFFFF" fill-rule="evenodd" xlink:href="#path-25"></use>
                                <rect stroke="#231F20" stroke-width="0.5" x="0.25" y="0.25" width="79.3029557" height="159.5" rx="5.2"></rect>
                            </g>
                            <g id="Rectangle-1">
                                <use fill="#FFFFFF" fill-rule="evenodd" xlink:href="#path-26"></use>
                                <rect stroke="#605D5E" stroke-width="0.5" x="1.30466461" y="1.40344828" width="77.0862069" height="157.3" rx="4.6"></rect>
                            </g>
                        </g>
                        <path d="M80.5641406,28.9287798 L80.5641406,52.5399702 C80.6765296,52.4611382 80.75,52.3305943 80.75,52.1828906 L80.75,29.2858594 C80.75,29.1381557 80.6765296,29.0076118 80.5641406,28.9287798 Z M80.5641406,60.2100298 L80.5641406,70.0712202 C80.6765296,69.9923882 80.75,69.8618443 80.75,69.7141406 L80.75,60.5671094 C80.75,60.4194057 80.6765296,60.2888618 80.5641406,60.2100298 Z M0.435859441,54.7100298 C0.323470435,54.7888618 0.25,54.9194057 0.25,55.0671094 L0.25,64.2141406 C0.25,64.3618443 0.323470435,64.4923882 0.435859441,64.5712202 L0.435859441,54.7100298 Z" id="Rectangle-12" stroke="#231F20" stroke-width="0.5"></path>
                        <g id="Rectangle-11">
                            <use fill="#F4F4F4" fill-rule="evenodd" xlink:href="#path-27"></use>
                            <rect stroke="#605D5E" stroke-width="0.5" x="4.83866995" y="16.25" width="71.3226601" height="127.5" rx="0.8"></rect>
                        </g>
                        <g id="Group-2" transform="translate(23.940887, 4.800000)" stroke="#3E3A3B" stroke-width="0.5">
                            <rect id="Rectangle-3" x="8.66349703" y="1.1870844" width="14.5946984" height="1.68670077" rx="0.843350384"></rect>
                            <rect id="Rectangle-4" x="28.1208251" y="1.01214834" width="5.34592368" height="2.12404092" rx="1.06202046"></rect>
                            <ellipse id="Oval-1" cx="1.99507389" cy="2" rx="1.99507389" ry="2"></ellipse>
                        </g>
                    </g>
                    <rect id="Rectangle-14" fill="#D8D8D8" x="9.37684729" y="24.2" width="12.3694581" height="12.4" rx="3.4"></rect>
                    <rect id="Rectangle-14" fill="#D8D8D8" x="25.5369458" y="24.2" width="12.3694581" height="12.4" rx="3.4"></rect>
                    <rect id="Rectangle-14" fill="#D8D8D8" x="42.2955665" y="24.2" width="12.3694581" height="12.4" rx="3.4"></rect>
                    <rect id="Rectangle-14" fill="#D8D8D8" x="58.6551724" y="24.2" width="12.3694581" height="12.4" rx="3.4"></rect>
                    <rect id="Rectangle-14" fill="#D8D8D8" x="9.37684729" y="48.6" width="12.3694581" height="12.4" rx="6.18472906"></rect>
                    <rect id="Rectangle-14" fill="#D8D8D8" x="25.5369458" y="48.6" width="12.3694581" height="12.4" rx="3.4"></rect>
                    <rect id="Rectangle-14" fill="#D8D8D8" x="42.2955665" y="48.6" width="12.3694581" height="12.4" rx="6.18472906"></rect>
                    <rect id="Rectangle-14" fill="#D8D8D8" x="58.6551724" y="48.6" width="12.3694581" height="12.4" rx="3.4"></rect>
                    <rect id="Rectangle-14" fill="#D8D8D8" x="9.37684729" y="71" width="12.3694581" height="12.4" rx="3.4"></rect>
                    <rect id="Rectangle-14" fill="#D8D8D8" x="25.5369458" y="71" width="12.3694581" height="12.4" rx="3.4"></rect>
                    <rect id="Rectangle-14" fill="#D8D8D8" x="42.2955665" y="71" width="12.3694581" height="12.4" rx="3.4"></rect>
                    <rect id="Rectangle-14" fill="#D8D8D8" x="58.6551724" y="71" width="12.3694581" height="12.4" rx="3.4"></rect>
                    <g id="Rectangle-15">
                        <use fill="#FFFFFF" fill-rule="evenodd" xlink:href="#path-28"></use>
                        <path stroke="#979797" stroke-width="0.5" d="M5.03817734,123.05 L5.03817734,143.2 C5.03817734,143.3933 5.19487768,143.55 5.38817734,143.55 L75.6118227,143.55 C75.8051223,143.55 75.9618227,143.3933 75.9618227,143.2 L75.9618227,123.05 L5.03817734,123.05 Z"></path>
                    </g>
                    <rect id="Rectangle-14" fill="#D8D8D8" x="8.97783251" y="127.2" width="12.3694581" height="12.4" rx="6.18472906"></rect>
                    <rect id="Rectangle-14" fill="#D8D8D8" x="25.137931" y="127.2" width="12.3694581" height="12.4" rx="6.18472906"></rect>
                    <rect id="Rectangle-14" fill="#D8D8D8" x="41.8965517" y="127.2" width="12.3694581" height="12.4" rx="6.18472906"></rect>
                    <rect id="Rectangle-14" fill="#D8D8D8" x="58.2561576" y="127.2" width="12.3694581" height="12.4" rx="6.18472906"></rect>
                </g>
                <g id="xian1" transform="translate(23.000000, 611.000000)">
                    <rect id="Separator-Copy-2" x="5" y="0" width="323" height="1"></rect>
                </g>
            </g>
        </g>
    </g>
</svg>